paperwork_black.sfdir
StartChar: exclam
Encoding: 33 33 65
Width: 156
Flags: MW
HStem: 0 123<17 141 17 141> 659 20G<17 141 141 141>
VStem: 17 124<0 123 0 123 192 679>
LayerCount: 2
Back
Fore
SplineSet
17 123 m 1
 141 123 l 1
 141 0 l 1
 17 0 l 1
 17 123 l 1
17 679 m 1
 141 679 l 1
 141 192 l 1
 17 192 l 1
 17 679 l 1
EndSplineSet
EndChar
StartChar: ampersand
Encoding: 38 38 63
Width: 444
Flags: MW
HStem: -20 20G<99 257 99 99> -2 21G<273 273> 549 20G<109 109>
LayerCount: 2
Back
Fore
SplineSet
322 526 m 1xa0
 243 447 l 1
 123 567 l 1
 283 567 l 1
 322 526 l 1xa0
188 488 m 1
 36 338 l 1
 36 496 l 1
 109 569 l 1
 188 488 l 1
155 358 m 1
 75 279 l 1
 34 322 l 1
 113 401 l 1
 155 358 l 1
322 510 m 1
 322 352 l 1
 42 73 l 1
 42 231 l 1
 322 510 l 1
40 57 m 1
 119 136 l 1
 257 0 l 1
 99 0 l 1
 40 57 l 1
356 241 m 1
 435 162 l 1
 273 -2 l 1x60
 192 77 l 1
 356 241 l 1
228 126 m 1
 170 186 l 1
 249 265 l 1
 309 206 l 1
 228 126 l 1
322 34 m 1
 402 113 l 1
 427 85 l 1
 348 6 l 1
 322 34 l 1
EndSplineSet
EndChar
StartChar: period
Encoding: 46 46 66
Width: 155
Flags: MW
HStem: 0 123<17 141 17 141>
VStem: 17 124<0 123 0 123>
LayerCount: 2
Back
Fore
SplineSet
17 0 m 1
 17 123 l 1
 141 123 l 1
 141 0 l 1
 17 0 l 1
EndSplineSet
EndChar
StartChar: zero
Encoding: 48 48 53
Width: 474
Flags: MW
HStem: 0 124<157 320 157 157> 554 124<153 316 153 320 153 316 153 440>
VStem: 20 122<135 539 539 539> 331 124<15 543 139 543 139 543 139 543>
LayerCount: 2
Back
Fore
SplineSet
420 573 m 1
 440 554 l 1
 320 554 l 1
 153 554 l 1
 153 573 l 1
 153 580 l 1
 153 599 l 1
 153 604 l 1
 153 626 l 1
 153 630 l 1
 153 652 l 1
 153 656 l 1
 153 678 l 1
 316 678 l 1
 337 656 l 1
 342 652 l 1
 361 630 l 1
 368 626 l 1
 387 604 l 1
 394 599 l 1
 413 580 l 1
 420 573 l 1
46 135 m 1
 40 135 l 1
 20 135 l 1
 20 539 l 1
 40 558 l 1
 46 565 l 1
 66 584 l 1
 70 589 l 1
 92 610 l 1
 96 615 l 1
 118 636 l 1
 122 641 l 1
 142 660 l 1
 142 543 l 1
 142 135 l 1
 122 135 l 1
 118 135 l 1
 96 135 l 1
 92 135 l 1
 70 135 l 1
 66 135 l 1
 46 135 l 1
36 124 m 1
 153 124 l 1
 320 124 l 1
 320 102 l 1
 320 98 l 1
 320 78 l 1
 320 72 l 1
 320 52 l 1
 320 46 l 1
 320 26 l 1
 320 20 l 1
 320 0 l 1
 157 0 l 1
 138 20 l 1
 133 26 l 1
 112 46 l 1
 107 52 l 1
 85 72 l 1
 81 78 l 1
 62 98 l 1
 55 102 l 1
 36 124 l 1
435 543 m 1
 455 543 l 1
 455 139 l 1
 435 117 l 1
 429 113 l 1
 409 93 l 1
 403 87 l 1
 383 67 l 1
 377 61 l 1
 357 41 l 1
 353 35 l 1
 331 15 l 1
 331 135 l 1
 331 543 l 1
 353 543 l 1
 357 543 l 1
 377 543 l 1
 383 543 l 1
 403 543 l 1
 409 543 l 1
 429 543 l 1
 435 543 l 1
EndSplineSet
EndChar
StartChar: one
Encoding: 49 49 54
Width: 294
Flags: MW
HStem: 0 21G<156 280 156 156> 555 124<12 145 12 145>
VStem: 12 133<555 577 577 581 581 601 601 607 607 627 627 633 633 653 653 659 659 679 555 679> 156 124<0 540 0 544 0 664>
LayerCount: 2
Back
Fore
SplineSet
12 659 m 1
 12 679 l 1
 145 679 l 1
 145 659 l 1
 145 653 l 1
 145 633 l 1
 145 627 l 1
 145 607 l 1
 145 601 l 1
 145 581 l 1
 145 577 l 1
 145 555 l 1
 12 555 l 1
 12 577 l 1
 12 581 l 1
 12 601 l 1
 12 607 l 1
 12 627 l 1
 12 633 l 1
 12 653 l 1
 12 659 l 1
156 664 m 1
 280 540 l 1
 280 0 l 1
 156 0 l 1
 156 544 l 1
 156 664 l 1
EndSplineSet
EndChar
StartChar: two
Encoding: 50 50 55
Width: 425
Flags: MW
HStem: 0 124<157 413 157 157> 272 122<152 274 152 278> 555 124<43 278 43 278>
VStem: 17 124<135 257 257 257> 43 235<283 394 555 574 574 581 581 601 601 607 607 627 627 633 633 653 653 657 657 679> 289 124<405 540>
LayerCount: 2
Back
Fore
SplineSet
278 574 m 1xec
 278 555 l 1
 43 555 l 1
 43 574 l 1
 43 581 l 1
 43 601 l 1
 43 607 l 1
 43 627 l 1
 43 633 l 1
 43 653 l 1
 43 657 l 1
 43 679 l 1
 278 679 l 1
 278 657 l 1
 278 653 l 1
 278 633 l 1
 278 627 l 1
 278 607 l 1
 278 601 l 1
 278 581 l 1
 278 574 l 1xec
392 559 m 1
 413 540 l 1
 413 405 l 1
 392 405 l 1
 387 405 l 1
 365 405 l 1
 361 405 l 1
 342 405 l 1
 335 405 l 1
 315 405 l 1
 309 405 l 1
 289 405 l 1
 289 544 l 1
 289 664 l 1
 309 642 l 1
 315 638 l 1
 335 616 l 1
 342 611 l 1
 361 592 l 1
 365 585 l 1
 387 566 l 1
 392 559 l 1
152 394 m 1
 278 394 l 1
 396 394 l 1
 376 374 l 1
 372 370 l 1
 350 348 l 1
 346 344 l 1
 326 322 l 1
 320 318 l 1
 300 298 l 1
 294 292 l 1
 274 272 l 1
 152 272 l 1
 152 292 l 1
 152 298 l 1
 152 318 l 1
 152 322 l 1
 152 344 l 1
 152 348 l 1
 152 370 l 1
 152 374 l 1
 152 394 l 1
33 124 m 1
 152 124 l 1
 413 124 l 1
 413 0 l 1
 157 0 l 1
 33 124 l 1
43 135 m 1
 37 135 l 1
 17 135 l 1
 17 257 l 1xf4
 37 276 l 1
 43 283 l 1xec
 63 302 l 1
 70 307 l 1
 89 329 l 1
 96 333 l 1
 115 355 l 1
 120 359 l 1
 141 379 l 1
 141 261 l 1
 141 135 l 1xf4
 120 135 l 1
 115 135 l 1
 96 135 l 1
 89 135 l 1
 70 135 l 1
 63 135 l 1
 43 135 l 1
EndSplineSet
EndChar
StartChar: three
Encoding: 51 51 56
Width: 420
Flags: MW
HStem: 0 123 272 125<83 264 83 269 83 280 83 280> 556 124<16 269 16 269>
VStem: 83 186<277 292 292 299 299 318 318 325 325 344 344 349 349 371 371 375 375 397 277 397> 280 124<135 257 135 272 135 288 135 272 135 288 135 379 135 379 408 541>
LayerCount: 2
Back
Fore
SplineSet
16 0 m 1
 16 122 l 1
 389 124 l 1
 264 0 l 1
 16 0 l 1
83 371 m 1
 83 375 l 1
 83 397 l 1
 269 397 l 1
 269 277 l 1
 264 272 l 1
 83 272 l 1
 83 292 l 1
 83 299 l 1
 83 318 l 1
 83 325 l 1
 83 344 l 1
 83 349 l 1
 83 371 l 1
280 288 m 1
 280 379 l 1
 404 257 l 1
 404 135 l 1
 280 135 l 1
 280 272 l 1
 280 272 l 1
 280 288 l 1
 280 288 l 1
336 344 m 1
 334 342 l 1
 280 397 l 1
 389 397 l 1
 369 375 l 1
 362 371 l 1
 343 349 l 1
 336 344 l 1
269 578 m 1
 269 556 l 1
 16 556 l 1
 16 578 l 1
 16 582 l 1
 16 602 l 1
 16 608 l 1
 16 628 l 1
 16 634 l 1
 16 654 l 1
 16 661 l 1
 16 680 l 1
 269 680 l 1
 269 661 l 1
 269 654 l 1
 269 634 l 1
 269 628 l 1
 269 608 l 1
 269 602 l 1
 269 582 l 1
 269 578 l 1
384 560 m 1
 404 541 l 1
 404 408 l 1
 384 408 l 1
 378 408 l 1
 358 408 l 1
 352 408 l 1
 332 408 l 1
 328 408 l 1
 306 408 l 1
 301 408 l 1
 280 408 l 1
 280 545 l 1
 280 665 l 1
 301 643 l 1
 306 639 l 1
 328 619 l 1
 332 613 l 1
 352 593 l 1
 358 586 l 1
 378 567 l 1
 384 560 l 1
EndSplineSet
EndChar
StartChar: four
Encoding: 52 52 57
Width: 421
Flags: MW
HStem: 0 21G<280 402 280 280> 273 123<157 157 157 269> 658 20G<280 402 402 402> 659 20G<17 37 37 43 43 63 63 67 67 89 89 94 94 116 116 120 120 140 140 140>
VStem: 17 123<407 679 407 679> 280 122<0 263 263 407 407 678 0 678>
LayerCount: 2
Back
Fore
SplineSet
43 407 m 1xdc
 37 407 l 1
 17 407 l 1
 17 679 l 1
 37 679 l 1
 43 679 l 1
 63 679 l 1
 67 679 l 1
 89 679 l 1
 94 679 l 1
 116 679 l 1
 120 679 l 1
 140 679 l 1
 140 407 l 1
 120 407 l 1
 116 407 l 1
 94 407 l 1
 89 407 l 1
 67 407 l 1
 63 407 l 1
 43 407 l 1xdc
157 273 m 1
 32 396 l 1
 269 396 l 1
 269 273 l 1
 157 273 l 1
280 678 m 1xec
 402 678 l 1
 402 0 l 1
 280 0 l 1
 280 263 l 1
 280 407 l 1
 280 678 l 1xec
EndSplineSet
EndChar
StartChar: five
Encoding: 53 53 58
Width: 433
Flags: MW
HStem: 0 123<24 283 24 287> 260 125<164 287 164 164> 396 151<24 44 24 44 44 51 51 70 70 75 75 97 97 101 101 123 123 127 127 147> 558 122<24 158 24 405 158 405>
VStem: 24 123<396 547 396 547 396 680> 298 122<133 245 133 249 133 370>
LayerCount: 2
Back
Fore
SplineSet
405 558 m 1
 158 558 l 1
 24 558 l 1
 24 680 l 1
 405 680 l 1
 405 558 l 1
51 396 m 1
 44 396 l 1
 24 396 l 1
 24 547 l 1
 44 547 l 1
 51 547 l 1
 70 547 l 1
 75 547 l 1
 97 547 l 1
 101 547 l 1
 123 547 l 1
 127 547 l 1
 147 547 l 1
 147 396 l 1
 127 396 l 1
 123 396 l 1
 101 396 l 1
 97 396 l 1
 75 396 l 1
 70 396 l 1
 51 396 l 1
40 385 m 1
 158 385 l 1
 287 385 l 1
 287 365 l 1
 287 359 l 1
 287 339 l 1
 287 333 l 1
 287 313 l 1
 287 309 l 1
 287 287 l 1
 287 282 l 1
 287 260 l 1
 164 260 l 1
 142 282 l 1
 138 287 l 1
 116 309 l 1
 112 313 l 1
 92 333 l 1
 86 339 l 1
 66 359 l 1
 59 365 l 1
 40 385 l 1
24 123 m 1
 287 123 l 1
 405 123 l 1
 283 0 l 1
 24 0 l 1
 24 123 l 1
401 267 m 1
 420 245 l 1
 420 133 l 1
 401 133 l 1
 396 133 l 1
 374 133 l 1
 370 133 l 1
 348 133 l 1
 344 133 l 1
 324 133 l 1
 318 133 l 1
 298 133 l 1
 298 249 l 1
 298 370 l 1
 318 350 l 1
 324 344 l 1
 344 324 l 1
 348 317 l 1
 370 298 l 1
 374 291 l 1
 396 271 l 1
 401 267 l 1
EndSplineSet
EndChar
StartChar: six
Encoding: 54 54 59
Width: 448
Flags: MW
HStem: 0 124<158 304 158 158> 272 122<154 299 154 304 154 299 154 421> 555 124<154 360 154 360>
VStem: 21 122<135 261 261 405 405 540 540 540> 154 206<61 124 555 577 577 581 581 601 601 607 607 627 627 633 633 653 653 659 659 679> 315 122<15 261 139 261 139 261 139 261>
LayerCount: 2
Back
Fore
SplineSet
299 394 m 1xf8
 421 272 l 1
 304 272 l 1
 154 272 l 1
 154 394 l 1
 299 394 l 1xf8
360 577 m 1
 360 555 l 1
 154 555 l 1
 154 577 l 1
 154 581 l 1
 154 601 l 1
 154 607 l 1
 154 627 l 1
 154 633 l 1
 154 653 l 1
 154 659 l 1
 154 679 l 1
 360 679 l 1
 360 659 l 1
 360 653 l 1
 360 633 l 1
 360 627 l 1
 360 607 l 1
 360 601 l 1
 360 581 l 1
 360 577 l 1
45 135 m 1
 40 135 l 1
 21 135 l 1
 21 540 l 1
 40 561 l 1
 45 566 l 1
 67 585 l 1
 71 592 l 1
 93 611 l 1
 97 618 l 1
 117 638 l 1
 123 644 l 1
 143 664 l 1
 143 544 l 1
 143 405 l 1
 143 261 l 1
 143 135 l 1
 123 135 l 1
 117 135 l 1
 97 135 l 1
 93 135 l 1
 71 135 l 1
 67 135 l 1
 45 135 l 1
36 124 m 1
 154 124 l 1
 304 124 l 1
 304 102 l 1
 304 98 l 1
 304 76 l 1
 304 72 l 1
 304 52 l 1
 304 46 l 1
 304 26 l 1
 304 20 l 1
 304 0 l 1
 158 0 l 1
 138 20 l 1
 132 26 l 1
 112 46 l 1
 108 52 l 1
 86 72 l 1
 82 76 l 1
 62 98 l 1
 56 102 l 1
 36 124 l 1
417 261 m 1
 437 261 l 1
 437 139 l 1xf4
 417 118 l 1
 410 113 l 1
 391 91 l 1
 386 87 l 1
 365 67 l 1
 360 61 l 1xf8
 339 41 l 1
 334 35 l 1
 315 15 l 1
 315 135 l 1
 315 261 l 1xf4
 334 261 l 1
 339 261 l 1
 360 261 l 1
 365 261 l 1
 386 261 l 1
 391 261 l 1
 410 261 l 1
 417 261 l 1
EndSplineSet
EndChar
StartChar: seven
Encoding: 55 55 60
Width: 448
Flags: MW
HStem: 0 21G<306 431 306 306> 416 127<16 138 16 138> 554 124<16 149 16 295 149 295>
VStem: 16 122<416 543 416 543 416 576 416 580 416 602 416 606 416 626 416 632 416 652 416 658 416 678> 306 125<0 538 0 543 0 663>
LayerCount: 2
Back
Fore
SplineSet
16 416 m 1
 16 543 l 1
 138 543 l 1
 138 416 l 1
 16 416 l 1
16 658 m 1
 16 678 l 1
 295 678 l 1
 295 658 l 1
 295 652 l 1
 295 632 l 1
 295 626 l 1
 295 606 l 1
 295 602 l 1
 295 580 l 1
 295 576 l 1
 295 554 l 1
 149 554 l 1
 16 554 l 1
 16 576 l 1
 16 580 l 1
 16 602 l 1
 16 606 l 1
 16 626 l 1
 16 632 l 1
 16 652 l 1
 16 658 l 1
306 663 m 1
 431 538 l 1
 431 0 l 1
 306 0 l 1
 306 543 l 1
 306 663 l 1
EndSplineSet
EndChar
StartChar: eight
Encoding: 56 56 61
Width: 474
Flags: MW
HStem: 0 124<160 314 160 319> 272 122<40 145 40 40 145 149 38 160 164 319 38 160> 555 124<155 314 155 319 155 314 155 436>
VStem: 23 122<405 540 540 540> 329 122<135 257 135 261 135 272 135 261 135 272 135 405 409 544>
LayerCount: 2
Back
Fore
SplineSet
436 555 m 1
 319 555 l 1
 155 555 l 1
 155 574 l 1
 155 581 l 1
 155 601 l 1
 155 607 l 1
 155 627 l 1
 155 631 l 1
 155 653 l 1
 155 657 l 1
 155 679 l 1
 314 679 l 1
 334 657 l 1
 338 653 l 1
 360 631 l 1
 364 627 l 1
 386 607 l 1
 390 601 l 1
 410 581 l 1
 417 574 l 1
 436 555 l 1
47 405 m 1
 42 405 l 1
 23 405 l 1
 23 540 l 1
 42 559 l 1
 47 566 l 1
 68 585 l 1
 73 590 l 1
 94 611 l 1
 99 616 l 1
 118 638 l 1
 125 642 l 1
 145 662 l 1
 145 405 l 1
 125 405 l 1
 118 405 l 1
 99 405 l 1
 94 405 l 1
 73 405 l 1
 68 405 l 1
 47 405 l 1
57 374 m 1
 38 394 l 1
 149 394 l 1
 92 339 l 1
 88 344 l 1
 84 348 l 1
 64 370 l 1
 57 374 l 1
101 331 m 1
 101 331 l 1
 164 394 l 1
 319 394 l 1
 319 272 l 1
 160 272 l 1
 160 272 l 1
 145 272 l 1
 40 272 l 1
 92 324 l 1
 101 331 l 1
123 261 m 1
 127 261 l 1
 149 261 l 1
 149 135 l 1
 149 135 l 1
 149 15 l 1
 127 37 l 1
 123 41 l 1
 103 61 l 1
 97 67 l 1
 77 87 l 1
 71 94 l 1
 51 113 l 1
 44 120 l 1
 25 139 l 1
 25 261 l 1
 44 261 l 1
 51 261 l 1
 71 261 l 1
 77 261 l 1
 97 261 l 1
 103 261 l 1
 123 261 l 1
160 124 m 1
 319 124 l 1
 436 124 l 1
 417 104 l 1
 410 98 l 1
 390 78 l 1
 386 72 l 1
 364 52 l 1
 360 46 l 1
 338 26 l 1
 334 22 l 1
 314 0 l 1
 160 0 l 1
 160 124 l 1
425 283 m 1
 432 276 l 1
 451 257 l 1
 451 135 l 1
 432 135 l 1
 425 135 l 1
 406 135 l 1
 401 135 l 1
 380 135 l 1
 375 135 l 1
 356 135 l 1
 349 135 l 1
 329 135 l 1
 329 261 l 1
 329 261 l 1
 329 272 l 1
 382 326 l 1
 401 307 l 1
 406 302 l 1
 425 283 l 1
432 544 m 1
 451 544 l 1
 451 409 l 1
 432 390 l 1
 425 385 l 1
 406 363 l 1
 401 359 l 1
 382 342 l 1
 380 337 l 1
 375 333 l 1
 375 333 l 1
 356 313 l 1
 349 307 l 1
 329 287 l 1
 329 405 l 1
 329 405 l 1
 329 544 l 1
 349 544 l 1
 356 544 l 1
 375 544 l 1
 380 544 l 1
 401 544 l 1
 406 544 l 1
 425 544 l 1
 432 544 l 1
EndSplineSet
EndChar
StartChar: nine
Encoding: 57 57 62
Width: 466
Flags: MW
HStem: 0 122<103 299 103 303> 281 124<160 303 160 160> 554 124<155 299 155 303 155 299 155 423>
VStem: 20 124<416 538 538 538> 314 125<133 270 270 416 416 543 133 543>
LayerCount: 2
Back
Fore
SplineSet
423 554 m 1
 303 554 l 1
 155 554 l 1
 155 576 l 1
 155 580 l 1
 155 599 l 1
 155 606 l 1
 155 626 l 1
 155 632 l 1
 155 652 l 1
 155 656 l 1
 155 678 l 1
 299 678 l 1
 319 656 l 1
 325 652 l 1
 345 632 l 1
 351 626 l 1
 371 606 l 1
 378 599 l 1
 397 580 l 1
 402 576 l 1
 423 554 l 1
46 416 m 1
 40 416 l 1
 20 416 l 1
 20 538 l 1
 40 558 l 1
 46 565 l 1
 66 584 l 1
 72 591 l 1
 92 610 l 1
 99 617 l 1
 118 637 l 1
 123 641 l 1
 144 663 l 1
 144 543 l 1
 144 416 l 1
 123 416 l 1
 118 416 l 1
 99 416 l 1
 92 416 l 1
 72 416 l 1
 66 416 l 1
 46 416 l 1
303 281 m 1
 160 281 l 1
 35 405 l 1
 155 405 l 1
 303 405 l 1
 303 281 l 1
103 122 m 1
 303 122 l 1
 423 122 l 1
 299 0 l 1
 103 0 l 1
 103 122 l 1
419 543 m 1
 439 543 l 1
 439 133 l 1
 419 133 l 1
 412 133 l 1
 393 133 l 1
 386 133 l 1
 367 133 l 1
 360 133 l 1
 341 133 l 1
 336 133 l 1
 314 133 l 1
 314 270 l 1
 314 416 l 1
 314 543 l 1
 336 543 l 1
 341 543 l 1
 360 543 l 1
 367 543 l 1
 386 543 l 1
 393 543 l 1
 412 543 l 1
 419 543 l 1
EndSplineSet
EndChar
StartChar: less
Encoding: 60 60 68
Width: 326
Flags: MW
HStem: 54 21G<218 218> 629 20G<217 217>
LayerCount: 2
Back
Fore
SplineSet
217 649 m 1
 306 560 l 1
 19 273 l 1
 18 451 l 1
 217 649 l 1
289 125 m 1
 274 110 l 1
 270 106 l 1
 255 91 l 1
 251 87 l 1
 237 73 l 1
 233 69 l 1
 218 54 l 1
 17 255 l 1
 106 344 l 1
 307 143 l 1
 292 129 l 1
 289 125 l 1
EndSplineSet
EndChar
StartChar: greater
Encoding: 62 62 69
Width: 320
Flags: MW
HStem: 62 21G<109 109> 629 20G<110 110>
LayerCount: 2
Back
Fore
SplineSet
110 649 m 1
 306 453 l 1
 306 277 l 1
 23 561 l 1
 110 649 l 1
109 62 m 1
 95 77 l 1
 91 80 l 1
 76 95 l 1
 73 99 l 1
 58 113 l 1
 54 117 l 1
 40 132 l 1
 36 135 l 1
 22 150 l 1
 220 348 l 1
 307 260 l 1
 109 62 l 1
EndSplineSet
EndChar
StartChar: question
Encoding: 63 63 67
Width: 494
Flags: MW
HStem: 0 124<186 310 186 310> 422 121<19 38 19 38 38 44 44 65 65 71 71 90 90 96 96 116 116 121 121 143> 555 124<34 344 158 344 158 344>
VStem: 19 124<422 543 422 543> 186 124<0 124 0 124> 354 124<407 539 407 543 407 663>
LayerCount: 2
Back
Fore
SplineSet
186 124 m 1
 310 124 l 1
 310 0 l 1
 186 0 l 1
 186 124 l 1
143 422 m 1
 121 422 l 1
 116 422 l 1
 96 422 l 1
 90 422 l 1
 71 422 l 1
 65 422 l 1
 44 422 l 1
 38 422 l 1
 19 422 l 1
 19 543 l 1
 38 543 l 1
 44 543 l 1
 65 543 l 1
 71 543 l 1
 90 543 l 1
 96 543 l 1
 116 543 l 1
 121 543 l 1
 143 543 l 1
 143 422 l 1
152 555 m 1
 34 555 l 1
 54 574 l 1
 59 580 l 1
 81 601 l 1
 86 607 l 1
 106 627 l 1
 112 632 l 1
 131 652 l 1
 137 658 l 1
 158 679 l 1
 344 679 l 1
 344 658 l 1
 344 652 l 1
 344 632 l 1
 344 627 l 1
 344 607 l 1
 344 601 l 1
 344 580 l 1
 344 574 l 1
 344 555 l 1
 152 555 l 1
309 193 m 1
 185 193 l 1
 185 258 l 1
 309 382 l 1
 309 262 l 1
 309 193 l 1
442 376 m 1
 437 370 l 1
 416 351 l 1
 411 345 l 1
 390 324 l 1
 385 320 l 1
 365 298 l 1
 359 293 l 1
 338 273 l 1
 319 273 l 1
 319 293 l 1
 319 298 l 1
 319 320 l 1
 319 324 l 1
 319 345 l 1
 319 351 l 1
 319 370 l 1
 319 376 l 1
 319 396 l 1
 344 396 l 1
 462 396 l 1
 442 376 l 1
458 407 m 1
 452 407 l 1
 431 407 l 1
 426 407 l 1
 406 407 l 1
 400 407 l 1
 381 407 l 1
 375 407 l 1
 354 407 l 1
 354 543 l 1
 354 663 l 1
 375 642 l 1
 381 636 l 1
 400 617 l 1
 406 611 l 1
 426 591 l 1
 431 586 l 1
 452 565 l 1
 458 559 l 1
 478 539 l 1
 478 407 l 1
 458 407 l 1
EndSplineSet
EndChar
StartChar: A
Encoding: 65 65 64
Width: 597
Flags: MW
HStem: 10 21G<466 466> 669 20G<244 266 266 272 272 294 294 298 298 320 320 326 326 348 348 352 352 374 374 374>
LayerCount: 2
Back
Fore
SplineSet
574 98 m 1
 408 206 l 1
 244 689 l 1
 266 689 l 1
 272 689 l 1
 294 689 l 1
 298 689 l 1
 320 689 l 1
 326 689 l 1
 348 689 l 1
 352 689 l 1
 374 689 l 1
 574 98 l 1
236 318 m 1
 156 372 l 1
 91 273 l 1
 234 685 l 1
 298 497 l 1
 236 318 l 1
16 53 m 1
 83 247 l 1
 188 178 l 1
 130 12 l 1
 111 18 l 1
 106 20 l 1
 87 27 l 1
 83 29 l 1
 63 36 l 1
 59 38 l 1
 39 44 l 1
 35 46 l 1
 16 53 l 1
236 307 m 1
 242 303 l 1
 568 89 l 1
 548 74 l 1
 466 10 l 1
 91 253 l 1
 158 357 l 1
 236 307 l 1
EndSplineSet
EndChar
StartChar: B
Encoding: 66 66 1
Width: 504
Flags: MW
HStem: -1 21G<39 39> 0 123 272 124<174 348 174 353 174 364 174 364> 557 122<39 174 39 353 174 353>
VStem: 39 124<-1 261 123 261 137 261 261 407 407 546> 174 179<276 293 293 298 298 320 320 324 324 344 344 350 350 370 370 376 376 396 276 396 276 557> 364 122<134 256 134 272 134 287 134 272 134 287 134 381 407 542>
LayerCount: 2
Back
Fore
SplineSet
466 562 m 1xbe
 486 542 l 1
 486 407 l 1
 466 407 l 1
 462 407 l 1
 440 407 l 1
 435 407 l 1
 414 407 l 1
 409 407 l 1
 390 407 l 1
 383 407 l 1
 364 407 l 1
 364 546 l 1
 364 664 l 1
 383 644 l 1
 390 638 l 1
 409 618 l 1
 414 614 l 1
 435 592 l 1
 440 588 l 1
 462 566 l 1
 466 562 l 1xbe
353 557 m 1
 174 557 l 1
 39 557 l 1
 39 577 l 1
 39 583 l 1
 39 603 l 1
 39 607 l 1
 39 629 l 1
 39 634 l 1
 39 655 l 1
 39 660 l 1
 39 679 l 1
 353 679 l 1
 353 660 l 1
 353 655 l 1
 353 634 l 1
 353 629 l 1
 353 607 l 1
 353 603 l 1
 353 583 l 1
 353 577 l 1
 353 557 l 1
163 261 m 1
 163 137 l 1
 39 137 l 1
 39 546 l 1
 163 546 l 1
 163 407 l 1
 163 261 l 1
174 376 m 1
 174 396 l 1
 353 396 l 1
 353 276 l 1
 348 272 l 1
 174 272 l 1
 174 293 l 1
 174 298 l 1
 174 320 l 1
 174 324 l 1
 174 344 l 1
 174 350 l 1
 174 370 l 1
 174 376 l 1
39 -1 m 1
 39 123 l 1
 470 123 l 1x7e
 348 1 l 1
 39 -1 l 1
364 287 m 1
 364 381 l 1
 486 256 l 1
 486 134 l 1
 364 134 l 1
 364 272 l 1
 364 272 l 1
 364 287 l 1
 364 287 l 1
420 344 m 1
 416 341 l 1
 364 396 l 1
 470 396 l 1
 451 376 l 1
 446 370 l 1
 425 350 l 1
 420 344 l 1
EndSplineSet
EndChar
StartChar: C
Encoding: 67 67 2
Width: 494
Flags: MW
HStem: 0 124<169 472 169 169> 555 124<165 472 165 472>
VStem: 29 125<135 540 540 540>
LayerCount: 2
Back
Fore
SplineSet
165 679 m 1
 472 679 l 1
 472 659 l 1
 472 653 l 1
 472 634 l 1
 472 627 l 1
 472 608 l 1
 472 603 l 1
 472 581 l 1
 472 578 l 1
 472 555 l 1
 165 555 l 1
 165 578 l 1
 165 581 l 1
 165 603 l 1
 165 608 l 1
 165 627 l 1
 165 634 l 1
 165 653 l 1
 165 659 l 1
 165 679 l 1
45 124 m 1
 165 124 l 1
 472 124 l 1
 472 0 l 1
 169 0 l 1
 45 124 l 1
56 135 m 1
 51 135 l 1
 29 135 l 1
 29 540 l 1
 51 562 l 1
 56 565 l 1
 77 585 l 1
 82 593 l 1
 101 612 l 1
 107 618 l 1
 127 638 l 1
 134 644 l 1
 154 664 l 1
 154 544 l 1
 154 135 l 1
 134 135 l 1
 127 135 l 1
 107 135 l 1
 101 135 l 1
 82 135 l 1
 77 135 l 1
 56 135 l 1
EndSplineSet
EndChar
StartChar: D
Encoding: 68 68 3
Width: 503
Flags: MW
HStem: 0 124<34 466 34 344> 556 124<34 169 34 348 169 348>
VStem: 34 124<0 545 124 545 135 545 135 545 135 578 135 582 135 604 135 608 135 628 135 634 135 654 135 661 135 680> 359 122<135 541 135 545 135 665>
LayerCount: 2
Back
Fore
SplineSet
461 562 m 1
 481 541 l 1
 481 135 l 1
 461 135 l 1
 457 135 l 1
 435 135 l 1
 431 135 l 1
 409 135 l 1
 405 135 l 1
 385 135 l 1
 378 135 l 1
 359 135 l 1
 359 545 l 1
 359 665 l 1
 378 645 l 1
 385 639 l 1
 405 619 l 1
 409 613 l 1
 431 593 l 1
 435 586 l 1
 457 567 l 1
 461 562 l 1
348 556 m 1
 169 556 l 1
 34 556 l 1
 34 578 l 1
 34 582 l 1
 34 604 l 1
 34 608 l 1
 34 628 l 1
 34 634 l 1
 34 654 l 1
 34 661 l 1
 34 680 l 1
 348 680 l 1
 348 661 l 1
 348 654 l 1
 348 634 l 1
 348 628 l 1
 348 608 l 1
 348 604 l 1
 348 582 l 1
 348 578 l 1
 348 556 l 1
158 545 m 1
 158 135 l 1
 34 135 l 1
 34 545 l 1
 158 545 l 1
34 0 m 1
 34 124 l 1
 466 124 l 1
 344 0 l 1
 34 0 l 1
EndSplineSet
EndChar
StartChar: E
Encoding: 69 69 4
Width: 484
Flags: MW
HStem: 0 127<31 158 158 169 31 31 169 457> 138 113<31 158 31 158> 262 126<31 158 31 31 31 31 158 169 169 457> 551 126<169 458 169 458>
VStem: 31 127<0 127 127 127 127 127 138 251 127 251 400 535 535 535>
LayerCount: 2
Back
Fore
SplineSet
169 388 m 1
 457 388 l 1
 457 262 l 1
 169 262 l 1
 158 262 l 1
 31 262 l 1
 31 262 l 1
 31 388 l 1
 31 388 l 1
 158 388 l 1
 169 388 l 1
458 573 m 1
 458 551 l 1
 169 551 l 1
 169 573 l 1
 169 577 l 1
 169 599 l 1
 169 604 l 1
 169 624 l 1
 169 630 l 1
 169 650 l 1
 169 657 l 1
 169 677 l 1
 458 677 l 1
 458 657 l 1
 458 650 l 1
 458 630 l 1
 458 624 l 1
 458 604 l 1
 458 599 l 1
 458 577 l 1
 458 573 l 1
158 539 m 1
 158 400 l 1
 31 400 l 1
 31 535 l 1
 51 557 l 1
 58 562 l 1
 78 584 l 1
 84 588 l 1
 104 608 l 1
 109 615 l 1
 131 635 l 1
 136 642 l 1
 158 662 l 1
 158 539 l 1
158 127 m 1
 169 127 l 1
 457 127 l 1
 457 0 l 1
 169 0 l 1
 31 0 l 1
 31 127 l 1
 31 127 l 1
 158 127 l 1
158 251 m 1
 158 138 l 1
 31 138 l 1
 31 251 l 1
 158 251 l 1
EndSplineSet
EndChar
StartChar: F
Encoding: 70 70 5
Width: 444
Flags: MW
HStem: 0 21G<28 28 28 50 50 54 54 74 74 80 80 100 100 106 106 126 126 133 133 152> 270 125<28 152 28 28 28 28 152 163 163 418> 554 124<163 423 163 423>
VStem: 28 124<0 259 0 259 0 395 0 270 405 538 538 538>
LayerCount: 2
Back
Fore
SplineSet
423 576 m 1
 423 554 l 1
 163 554 l 1
 163 576 l 1
 163 580 l 1
 163 602 l 1
 163 606 l 1
 163 626 l 1
 163 632 l 1
 163 652 l 1
 163 658 l 1
 163 678 l 1
 423 678 l 1
 423 658 l 1
 423 652 l 1
 423 632 l 1
 423 626 l 1
 423 606 l 1
 423 602 l 1
 423 580 l 1
 423 576 l 1
152 543 m 1
 152 405 l 1
 28 405 l 1
 28 538 l 1
 50 560 l 1
 54 565 l 1
 74 586 l 1
 80 591 l 1
 100 610 l 1
 106 617 l 1
 126 637 l 1
 133 643 l 1
 152 663 l 1
 152 543 l 1
28 0 m 1
 28 259 l 1
 152 259 l 1
 152 0 l 1
 133 0 l 1
 126 0 l 1
 106 0 l 1
 100 0 l 1
 80 0 l 1
 74 0 l 1
 54 0 l 1
 50 0 l 1
 28 0 l 1
163 395 m 1
 418 395 l 1
 418 270 l 1
 163 270 l 1
 152 270 l 1
 28 270 l 1
 28 270 l 1
 28 395 l 1
 28 395 l 1
 152 395 l 1
 163 395 l 1
EndSplineSet
EndChar
StartChar: G
Encoding: 71 71 6
Width: 496
Flags: MW
HStem: 0 124<161 346 161 161> 272 124<239 342 239 346 239 342 239 466> 557 122<157 459 157 459>
VStem: 22 124<135 542 542 542> 357 124<15 261 139 261 139 261 139 261>
LayerCount: 2
Back
Fore
SplineSet
342 396 m 1
 466 272 l 1
 346 272 l 1
 239 272 l 1
 239 396 l 1
 342 396 l 1
459 577 m 1
 459 557 l 1
 157 557 l 1
 157 577 l 1
 157 583 l 1
 157 603 l 1
 157 607 l 1
 157 629 l 1
 157 633 l 1
 157 653 l 1
 157 659 l 1
 157 679 l 1
 459 679 l 1
 459 659 l 1
 459 653 l 1
 459 633 l 1
 459 629 l 1
 459 607 l 1
 459 603 l 1
 459 583 l 1
 459 577 l 1
48 135 m 1
 41 135 l 1
 22 135 l 1
 22 542 l 1
 41 561 l 1
 48 566 l 1
 67 588 l 1
 74 592 l 1
 93 614 l 1
 98 618 l 1
 120 638 l 1
 124 644 l 1
 146 664 l 1
 146 546 l 1
 146 135 l 1
 124 135 l 1
 120 135 l 1
 98 135 l 1
 93 135 l 1
 74 135 l 1
 67 135 l 1
 48 135 l 1
37 124 m 1
 157 124 l 1
 346 124 l 1
 346 104 l 1
 346 98 l 1
 346 78 l 1
 346 72 l 1
 346 52 l 1
 346 46 l 1
 346 26 l 1
 346 22 l 1
 346 0 l 1
 161 0 l 1
 139 22 l 1
 135 26 l 1
 115 46 l 1
 109 52 l 1
 89 72 l 1
 83 78 l 1
 63 98 l 1
 56 104 l 1
 37 124 l 1
459 261 m 1
 481 261 l 1
 481 139 l 1
 459 120 l 1
 455 113 l 1
 435 94 l 1
 429 87 l 1
 409 67 l 1
 402 63 l 1
 383 41 l 1
 376 37 l 1
 357 15 l 1
 357 135 l 1
 357 261 l 1
 376 261 l 1
 383 261 l 1
 402 261 l 1
 409 261 l 1
 429 261 l 1
 435 261 l 1
 455 261 l 1
 459 261 l 1
EndSplineSet
EndChar
StartChar: H
Encoding: 72 72 7
Width: 509
Flags: MW
HStem: 1 21G<29 29 29 51 51 55 55 74 74 81 81 101 101 107 107 127 127 133 133 153 358 358 358 482> 271 125<29 153 44 153 44 153 153 164 168 347> 659 20G<29 51 51 55 55 74 74 81 81 101 101 107 107 127 127 133 133 153 153 153 358 482 482 482>
VStem: 29 124<1 260 1 260 396 679> 358 124<1 260 260 406 406 679 1 679>
LayerCount: 2
Back
Fore
SplineSet
153 679 m 1
 153 396 l 1
 29 271 l 1
 29 679 l 1
 51 679 l 1
 55 679 l 1
 74 679 l 1
 81 679 l 1
 101 679 l 1
 107 679 l 1
 127 679 l 1
 133 679 l 1
 153 679 l 1
29 1 m 1
 29 260 l 1
 153 260 l 1
 153 1 l 1
 133 1 l 1
 127 1 l 1
 107 1 l 1
 101 1 l 1
 81 1 l 1
 74 1 l 1
 55 1 l 1
 51 1 l 1
 29 1 l 1
44 271 m 1
 168 396 l 1
 347 396 l 1
 347 271 l 1
 164 271 l 1
 153 271 l 1
 44 271 l 1
358 679 m 1
 482 679 l 1
 482 1 l 1
 358 1 l 1
 358 260 l 1
 358 406 l 1
 358 679 l 1
EndSplineSet
EndChar
StartChar: I
Encoding: 73 73 8
Width: 323
Flags: MW
HStem: 0 124<18 100 100 244 244 305 18 100> 556 122<18 111 18 233 126 126 18 233 244 305 18 244>
VStem: 18 215<0 545 124 545 556 576 576 582 582 602 602 606 606 628 628 632 632 654 654 658 658 662 135 678 135 678> 111 122<135 541 541 541 135 556> 244 61<0 124 556 576 576 582 582 602 602 606 606 628 628 632 632 654 654 658 658 678>
LayerCount: 2
Back
Fore
SplineSet
244 678 m 1xe8
 305 678 l 1
 305 658 l 1
 305 654 l 1
 305 632 l 1
 305 628 l 1
 305 606 l 1
 305 602 l 1
 305 582 l 1
 305 576 l 1
 305 556 l 1
 244 556 l 1
 244 678 l 1xe8
233 678 m 1
 111 556 l 1
 18 556 l 1
 18 576 l 1
 18 582 l 1
 18 602 l 1
 18 606 l 1
 18 628 l 1
 18 632 l 1
 18 654 l 1
 18 658 l 1
 18 678 l 1
 233 678 l 1
100 124 m 1
 244 124 l 1
 305 124 l 1
 305 0 l 1
 18 0 l 1
 18 124 l 1
 100 124 l 1
111 541 m 1xd8
 116 545 l 1
 126 556 l 1
 233 662 l 1
 233 556 l 1
 233 545 l 1
 233 135 l 1
 111 135 l 1
 111 541 l 1xd8
EndSplineSet
EndChar
StartChar: J
Encoding: 74 74 9
Width: 470
Flags: MW
HStem: 0 124<150 246 150 250> 556 122<168 261 168 383 277 277 168 383 168 394 394 457>
VStem: 15 124<140 253 15 253> 261 122<135 541 541 541 135 556> 394 63<556 576 576 582 582 602 602 606 606 628 628 632 632 654 654 658 658 678>
LayerCount: 2
Back
Fore
SplineSet
168 658 m 1
 168 678 l 1
 383 678 l 1
 261 556 l 1
 168 556 l 1
 168 576 l 1
 168 582 l 1
 168 602 l 1
 168 606 l 1
 168 628 l 1
 168 632 l 1
 168 654 l 1
 168 658 l 1
15 140 m 1
 15 253 l 1
 139 253 l 1
 139 135 l 1
 139 15 l 1
 15 140 l 1
150 124 m 1
 250 124 l 1
 368 124 l 1
 348 102 l 1
 344 98 l 1
 322 76 l 1
 318 72 l 1
 296 52 l 1
 292 46 l 1
 272 26 l 1
 266 20 l 1
 246 0 l 1
 150 0 l 1
 150 20 l 1
 150 26 l 1
 150 46 l 1
 150 52 l 1
 150 72 l 1
 150 76 l 1
 150 98 l 1
 150 102 l 1
 150 124 l 1
359 639 m 1
 364 643 l 1
 383 663 l 1
 383 556 l 1
 383 545 l 1
 383 135 l 1
 364 135 l 1
 359 135 l 1
 338 135 l 1
 333 135 l 1
 314 135 l 1
 307 135 l 1
 287 135 l 1
 281 135 l 1
 261 135 l 1
 261 541 l 1
 266 545 l 1
 277 556 l 1
 281 560 l 1
 287 567 l 1
 307 586 l 1
 314 591 l 1
 333 613 l 1
 338 617 l 1
 359 639 l 1
394 678 m 1
 457 678 l 1
 457 658 l 1
 457 654 l 1
 457 632 l 1
 457 628 l 1
 457 606 l 1
 457 602 l 1
 457 582 l 1
 457 576 l 1
 457 556 l 1
 394 556 l 1
 394 678 l 1
EndSplineSet
EndChar
StartChar: K
Encoding: 75 75 10
Width: 503
Flags: MW
HStem: 0 21G<28 48 28 28 48 52 52 74 74 78 78 100 100 104 104 124 124 131 131 150> 658 20G
VStem: 28 42<249 429 249 678> 28 122<0 187 490 678>
LayerCount: 2
Back
Fore
SplineSet
85 427 m 1xd0
 150 477 l 1
 161 486 l 1
 412 674 l 1
 425 658 l 1
 427 654 l 1
 440 637 l 1
 442 632 l 1
 455 617 l 1
 458 613 l 1
 471 597 l 1
 475 593 l 1
 486 576 l 1
 181 347 l 1
 100 405 l 1
 100 408 l 1
 98 412 l 1
 85 427 l 1xd0
70 429 m 1xe0
 70 249 l 1xe0
 150 187 l 1
 150 0 l 1
 131 0 l 1
 124 0 l 1
 104 0 l 1
 100 0 l 1
 78 0 l 1
 74 0 l 1
 52 0 l 1
 48 0 l 1
 28 0 l 1
 28 678 l 1
 48 678 l 1
 52 678 l 1
 74 678 l 1
 78 678 l 1
 100 678 l 1
 104 678 l 1
 124 678 l 1
 131 678 l 1
 150 678 l 1
 150 490 l 1xd0
 70 429 l 1xe0
172 340 m 1
 178 334 l 1
 486 102 l 1
 412 4 l 1
 80 253 l 1
 80 408 l 1
 109 386 l 1
 124 375 l 1
 124 375 l 1
 172 340 l 1
 172 340 l 1
EndSplineSet
EndChar
StartChar: L
Encoding: 76 76 11
Width: 432
Flags: MW
HStem: 0 122<163 415 163 163> 658 20G<25 45 45 49 49 71 71 75 75 97 97 102 102 121 121 128 128 147 147 147>
VStem: 25 122<133 678 133 678>
LayerCount: 2
Back
Fore
SplineSet
49 133 m 1
 45 133 l 1
 25 133 l 1
 25 678 l 1
 45 678 l 1
 49 678 l 1
 71 678 l 1
 75 678 l 1
 97 678 l 1
 102 678 l 1
 121 678 l 1
 128 678 l 1
 147 678 l 1
 147 133 l 1
 128 133 l 1
 121 133 l 1
 102 133 l 1
 97 133 l 1
 75 133 l 1
 71 133 l 1
 49 133 l 1
158 122 m 1
 415 122 l 1
 415 0 l 1
 163 0 l 1
 40 122 l 1
 158 122 l 1
EndSplineSet
EndChar
StartChar: M
Encoding: 77 77 12
Width: 753
Flags: MW
HStem: 0 21G<22 22 22 42 42 48 48 68 68 75 75 94 94 99 99 120 120 125 125 146 612 612 612 734> 657 20G
VStem: 22 124<0 350 0 635> 612 122<0 635 635 651 0 677 0 677 0 677>
LayerCount: 2
Back
Fore
SplineSet
22 0 m 1
 22 635 l 1
 146 350 l 1
 146 0 l 1
 125 0 l 1
 120 0 l 1
 99 0 l 1
 94 0 l 1
 75 0 l 1
 68 0 l 1
 48 0 l 1
 42 0 l 1
 22 0 l 1
151 677 m 1
 373 161 l 1
 305 7 l 1
 305 7 l 1
 27 653 l 1
 48 657 l 1
 53 657 l 1
 57 657 l 1
 72 662 l 1
 72 662 l 1
 72 662 l 1
 79 664 l 1
 99 668 l 1
 105 668 l 1
 125 672 l 1
 131 675 l 1
 151 677 l 1
377 148 m 1
 381 154 l 1
 601 664 l 1
 601 353 l 1
 451 7 l 1
 429 7 l 1
 423 7 l 1
 401 7 l 1
 394 7 l 1
 373 7 l 1
 368 7 l 1
 344 7 l 1
 340 7 l 1
 334 7 l 1
 316 7 l 1
 377 148 l 1
730 653 m 1
 734 651 l 1
 734 635 l 1
 734 0 l 1
 612 0 l 1
 612 677 l 1
 612 677 l 1
 625 675 l 1
 625 675 l 1
 632 672 l 1
 632 672 l 1
 651 668 l 1
 651 668 l 1
 658 668 l 1
 658 668 l 1
 677 664 l 1
 677 664 l 1
 684 662 l 1
 706 657 l 1
 708 657 l 1
 730 653 l 1
EndSplineSet
EndChar
StartChar: N
Encoding: 78 78 13
Width: 577
Flags: MW
HStem: 2 21G<29 29 29 49 49 55 55 75 75 81 81 101 101 105 105 127 127 131 131 153> 659 20G
VStem: 29 124<2 429 2 633> 427 124<7 679 39 233 233 255 255 679 39 679>
LayerCount: 2
Back
Fore
SplineSet
29 2 m 1
 29 633 l 1
 153 429 l 1
 153 2 l 1
 131 2 l 1
 127 2 l 1
 105 2 l 1
 101 2 l 1
 81 2 l 1
 75 2 l 1
 55 2 l 1
 49 2 l 1
 29 2 l 1
138 672 m 1
 158 679 l 1
 416 250 l 1
 416 13 l 1
 38 640 l 1
 36 644 l 1
 55 651 l 1
 57 651 l 1
 60 651 l 1
 60 651 l 1
 62 653 l 1
 81 657 l 1
 86 659 l 1
 107 664 l 1
 112 666 l 1
 134 672 l 1
 138 672 l 1
551 679 m 1
 551 39 l 1
 427 7 l 1
 427 11 l 1
 427 233 l 1
 427 255 l 1
 427 679 l 1
 551 679 l 1
EndSplineSet
EndChar
StartChar: O
Encoding: 79 79 14
Width: 531
Flags: MW
HStem: 0 124<162 374 162 162> 556 122<158 370 158 374 158 370 158 494>
VStem: 23 124<135 541 541 541> 385 124<15 545 140 545 140 545 140 545>
LayerCount: 2
Back
Fore
SplineSet
472 576 m 1
 494 556 l 1
 374 556 l 1
 158 556 l 1
 158 576 l 1
 158 580 l 1
 158 602 l 1
 158 606 l 1
 158 628 l 1
 158 632 l 1
 158 652 l 1
 158 658 l 1
 158 678 l 1
 370 678 l 1
 389 658 l 1
 396 652 l 1
 415 632 l 1
 422 628 l 1
 442 606 l 1
 448 602 l 1
 468 580 l 1
 472 576 l 1
49 135 m 1
 43 135 l 1
 23 135 l 1
 23 541 l 1
 43 560 l 1
 49 565 l 1
 69 586 l 1
 75 591 l 1
 95 613 l 1
 99 617 l 1
 121 637 l 1
 125 643 l 1
 147 663 l 1
 147 135 l 1
 125 135 l 1
 121 135 l 1
 99 135 l 1
 95 135 l 1
 75 135 l 1
 69 135 l 1
 49 135 l 1
38 124 m 1
 158 124 l 1
 374 124 l 1
 374 102 l 1
 374 98 l 1
 374 76 l 1
 374 72 l 1
 374 52 l 1
 374 46 l 1
 374 26 l 1
 374 20 l 1
 374 0 l 1
 162 0 l 1
 141 20 l 1
 136 26 l 1
 117 46 l 1
 110 52 l 1
 91 72 l 1
 84 76 l 1
 64 98 l 1
 58 102 l 1
 38 124 l 1
487 545 m 1
 509 545 l 1
 509 140 l 1
 487 118 l 1
 483 113 l 1
 461 92 l 1
 457 87 l 1
 437 68 l 1
 431 61 l 1
 411 41 l 1
 404 35 l 1
 385 15 l 1
 385 135 l 1
 385 545 l 1
 404 545 l 1
 411 545 l 1
 431 545 l 1
 437 545 l 1
 457 545 l 1
 461 545 l 1
 483 545 l 1
 487 545 l 1
EndSplineSet
EndChar
StartChar: P
Encoding: 80 80 15
Width: 498
Flags: MW
HStem: 0 209<27 151 27 49 49 53 53 75 75 79 79 99 99 105 105 125 125 131 131 151> 219 122<27 151 27 151 151 162 162 346> 352 191<27 49 49 53 53 75 75 79 79 99 99 105 105 125 125 131 131 151 27 49> 554 124<166 351 166 351>
VStem: 27 124<0 209 0 209 0 341 352 543> 361 124<352 539 352 543 352 662 352 662>
LayerCount: 2
Back
Fore
SplineSet
351 576 m 1
 351 554 l 1
 42 554 l 1
 64 576 l 1
 68 580 l 1
 90 599 l 1
 94 606 l 1
 114 626 l 1
 120 632 l 1
 140 652 l 1
 146 658 l 1
 166 678 l 1
 351 678 l 1
 351 658 l 1
 351 652 l 1
 351 632 l 1
 351 626 l 1
 351 606 l 1
 351 599 l 1
 351 580 l 1
 351 576 l 1
151 543 m 1
 151 352 l 1
 27 352 l 1
 27 543 l 1
 49 543 l 1
 53 543 l 1
 75 543 l 1
 79 543 l 1
 99 543 l 1
 105 543 l 1
 125 543 l 1
 131 543 l 1
 151 543 l 1
27 0 m 1
 27 209 l 1
 151 209 l 1
 151 0 l 1
 131 0 l 1
 125 0 l 1
 105 0 l 1
 99 0 l 1
 79 0 l 1
 75 0 l 1
 53 0 l 1
 49 0 l 1
 27 0 l 1
162 341 m 1
 351 341 l 1
 470 341 l 1
 346 219 l 1
 162 219 l 1
 151 219 l 1
 27 219 l 1
 27 341 l 1
 151 341 l 1
 162 341 l 1
466 560 m 1
 485 539 l 1
 485 352 l 1
 466 352 l 1
 459 352 l 1
 440 352 l 1
 433 352 l 1
 414 352 l 1
 407 352 l 1
 387 352 l 1
 383 352 l 1
 361 352 l 1
 361 543 l 1
 361 662 l 1
 383 643 l 1
 387 636 l 1
 407 617 l 1
 414 610 l 1
 433 591 l 1
 440 584 l 1
 459 565 l 1
 466 560 l 1
EndSplineSet
EndChar
StartChar: Q
Encoding: 81 81 16
Width: 575
Flags: MW
HStem: -17 21G<477 477> 0 122<164 317 164 164> 555 124<160 372 160 376 160 372 160 496>
VStem: 25 124<133 539 539 539> 387 125<15 544 55 544 242 242 242 242 258 544 138 544>
LayerCount: 2
Back
Fore
SplineSet
510 122 m 1x78
 564 70 l 1
 477 -17 l 1xb8
 333 122 l 1
 326 129 l 1
 213 242 l 1
 300 330 l 1
 376 253 l 1
 376 253 l 1
 387 242 l 1
 387 242 l 1
 503 129 l 1
 503 129 l 1
 510 122 l 1x78
486 544 m 1
 492 544 l 1
 512 544 l 1
 512 138 l 1
 510 138 l 1
 387 258 l 1
 387 544 l 1
 409 544 l 1
 413 544 l 1
 433 544 l 1
 440 544 l 1
 459 544 l 1
 466 544 l 1
 486 544 l 1
496 555 m 1
 376 555 l 1
 160 555 l 1
 160 577 l 1
 160 581 l 1
 160 601 l 1
 160 607 l 1
 160 627 l 1
 160 633 l 1
 160 653 l 1
 160 660 l 1
 160 679 l 1
 372 679 l 1
 394 660 l 1
 398 653 l 1
 418 633 l 1
 424 627 l 1
 444 607 l 1
 451 601 l 1
 470 581 l 1
 477 577 l 1
 496 555 l 1
51 133 m 1
 47 133 l 1
 25 133 l 1
 25 539 l 1
 47 561 l 1
 51 566 l 1
 71 585 l 1
 77 592 l 1
 97 612 l 1
 103 618 l 1
 123 638 l 1
 130 644 l 1
 149 664 l 1
 149 544 l 1
 149 133 l 1
 130 133 l 1
 123 133 l 1
 103 133 l 1
 97 133 l 1
 77 133 l 1
 71 133 l 1
 51 133 l 1
160 122 m 1
 317 122 l 1
 376 66 l 1
 376 50 l 1
 376 46 l 1
 376 24 l 1
 376 20 l 1
 376 0 l 1
 164 0 l 1
 145 20 l 1
 138 24 l 1
 119 46 l 1
 112 50 l 1
 92 72 l 1
 86 76 l 1
 66 96 l 1
 62 103 l 1
 40 122 l 1
 160 122 l 1
387 15 m 1
 387 55 l 1
 407 35 l 1
 387 15 l 1
EndSplineSet
EndChar
StartChar: R
Encoding: 82 82 17
Width: 498
Flags: MW
HStem: 0 209<22 146 22 42 42 48 48 68 68 74 74 94 94 98 98 120 120 124 124 146> 219 124<22 146 22 146 146 157 157 341> 354 189<22 42 42 48 48 68 68 74 74 94 94 98 98 120 120 124 124 146 22 42> 556 122<161 346 161 346>
VStem: 22 124<0 209 0 209 0 343 354 543> 356 124<0 204 0 219 0 235 0 328 354 539>
LayerCount: 2
Back
Fore
SplineSet
459 560 m 1
 480 539 l 1
 480 354 l 1
 459 354 l 1
 454 354 l 1
 432 354 l 1
 428 354 l 1
 409 354 l 1
 402 354 l 1
 383 354 l 1
 376 354 l 1
 356 354 l 1
 356 545 l 1
 356 662 l 1
 376 643 l 1
 383 636 l 1
 402 617 l 1
 409 610 l 1
 428 591 l 1
 432 586 l 1
 454 565 l 1
 459 560 l 1
139 658 m 1
 161 678 l 1
 346 678 l 1
 346 658 l 1
 346 652 l 1
 346 632 l 1
 346 628 l 1
 346 606 l 1
 346 602 l 1
 346 580 l 1
 346 576 l 1
 346 556 l 1
 37 556 l 1
 57 576 l 1
 63 580 l 1
 83 602 l 1
 89 606 l 1
 109 628 l 1
 115 632 l 1
 135 652 l 1
 139 658 l 1
146 543 m 1
 146 354 l 1
 22 354 l 1
 22 543 l 1
 42 543 l 1
 48 543 l 1
 68 543 l 1
 74 543 l 1
 94 543 l 1
 98 543 l 1
 120 543 l 1
 124 543 l 1
 146 543 l 1
22 0 m 1
 22 209 l 1
 146 209 l 1
 146 0 l 1
 124 0 l 1
 120 0 l 1
 98 0 l 1
 94 0 l 1
 74 0 l 1
 68 0 l 1
 48 0 l 1
 42 0 l 1
 22 0 l 1
146 343 m 1
 157 343 l 1
 346 343 l 1
 346 224 l 1
 341 219 l 1
 157 219 l 1
 146 219 l 1
 22 219 l 1
 22 343 l 1
 146 343 l 1
402 280 m 1
 411 274 l 1
 480 204 l 1
 480 0 l 1
 356 0 l 1
 356 219 l 1
 356 235 l 1
 356 328 l 1
 402 280 l 1
 402 280 l 1
413 291 m 1
 411 289 l 1
 356 343 l 1
 463 343 l 1
 443 321 l 1
 439 317 l 1
 417 295 l 1
 413 291 l 1
EndSplineSet
EndChar
StartChar: S
Encoding: 83 83 18
Width: 480
Flags: MW
HStem: 0 122<35 321 35 325> 270 125<175 325 175 175> 554 124<170 460 170 460>
VStem: 35 124<405 538 538 538> 336 124<133 255 133 259 133 379>
LayerCount: 2
Back
Fore
SplineSet
170 678 m 1
 460 678 l 1
 460 658 l 1
 460 652 l 1
 460 632 l 1
 460 626 l 1
 460 606 l 1
 460 602 l 1
 460 580 l 1
 460 576 l 1
 460 554 l 1
 170 554 l 1
 170 576 l 1
 170 580 l 1
 170 602 l 1
 170 606 l 1
 170 626 l 1
 170 632 l 1
 170 652 l 1
 170 658 l 1
 170 678 l 1
35 122 m 1
 325 122 l 1
 445 122 l 1
 321 0 l 1
 35 0 l 1
 35 122 l 1
434 281 m 1
 440 275 l 1
 460 255 l 1
 460 133 l 1
 440 133 l 1
 434 133 l 1
 414 133 l 1
 408 133 l 1
 388 133 l 1
 384 133 l 1
 362 133 l 1
 358 133 l 1
 336 133 l 1
 336 259 l 1
 336 379 l 1
 358 358 l 1
 362 353 l 1
 384 334 l 1
 388 327 l 1
 408 307 l 1
 414 301 l 1
 434 281 l 1
72 373 m 1
 50 395 l 1
 170 395 l 1
 325 395 l 1
 325 373 l 1
 325 368 l 1
 325 349 l 1
 325 342 l 1
 325 323 l 1
 325 316 l 1
 325 296 l 1
 325 290 l 1
 325 270 l 1
 175 270 l 1
 155 290 l 1
 148 296 l 1
 129 316 l 1
 122 323 l 1
 103 342 l 1
 98 349 l 1
 76 368 l 1
 72 373 l 1
61 405 m 1
 57 405 l 1
 35 405 l 1
 35 538 l 1
 57 560 l 1
 61 565 l 1
 81 584 l 1
 87 591 l 1
 107 610 l 1
 113 617 l 1
 133 637 l 1
 140 643 l 1
 159 663 l 1
 159 543 l 1
 159 405 l 1
 140 405 l 1
 133 405 l 1
 113 405 l 1
 107 405 l 1
 87 405 l 1
 81 405 l 1
 61 405 l 1
EndSplineSet
EndChar
StartChar: T
Encoding: 84 84 19
Width: 553
Flags: MW
HStem: 0 21G<216 340 216 216> 556 122<18 216 18 340 231 231 18 340 18 351 351 539>
VStem: 216 124<0 538 538 538 0 556> 351 188<556 576 576 580 580 602 602 606 606 626 626 632 632 652 652 658 658 678 556 678>
LayerCount: 2
Back
Fore
SplineSet
18 658 m 1
 18 678 l 1
 340 678 l 1
 216 556 l 1
 18 556 l 1
 18 576 l 1
 18 580 l 1
 18 602 l 1
 18 606 l 1
 18 626 l 1
 18 632 l 1
 18 652 l 1
 18 658 l 1
220 545 m 1
 231 556 l 1
 340 663 l 1
 340 556 l 1
 340 545 l 1
 340 0 l 1
 216 0 l 1
 216 538 l 1
 220 545 l 1
351 678 m 1
 539 678 l 1
 539 658 l 1
 539 652 l 1
 539 632 l 1
 539 626 l 1
 539 606 l 1
 539 602 l 1
 539 580 l 1
 539 576 l 1
 539 556 l 1
 351 556 l 1
 351 678 l 1
EndSplineSet
EndChar
StartChar: U
Encoding: 85 85 20
Width: 504
Flags: MW
HStem: 0 122<164 347 164 164> 658 20G<24 46 46 50 50 70 70 77 77 96 96 103 103 122 122 127 127 149 149 149 358 482 482 482>
VStem: 24 125<133 678 133 678> 358 124<15 678 137 678 137 678 137 678>
LayerCount: 2
Back
Fore
SplineSet
50 133 m 1
 46 133 l 1
 24 133 l 1
 24 678 l 1
 46 678 l 1
 50 678 l 1
 70 678 l 1
 77 678 l 1
 96 678 l 1
 103 678 l 1
 122 678 l 1
 127 678 l 1
 149 678 l 1
 149 133 l 1
 127 133 l 1
 122 133 l 1
 103 133 l 1
 96 133 l 1
 77 133 l 1
 70 133 l 1
 50 133 l 1
40 122 m 1
 159 122 l 1
 347 122 l 1
 347 102 l 1
 347 96 l 1
 347 76 l 1
 347 72 l 1
 347 50 l 1
 347 46 l 1
 347 24 l 1
 347 20 l 1
 347 0 l 1
 164 0 l 1
 144 20 l 1
 138 24 l 1
 118 46 l 1
 112 50 l 1
 92 72 l 1
 85 76 l 1
 66 96 l 1
 61 102 l 1
 40 122 l 1
358 678 m 1
 482 678 l 1
 482 137 l 1
 358 15 l 1
 358 133 l 1
 358 678 l 1
EndSplineSet
EndChar
StartChar: V
Encoding: 86 86 21
Width: 612
Flags: MW
HStem: 0 21G<246 268 246 246 268 377 268 268> 658 20G<130 130 483 483>
LayerCount: 2
Back
Fore
SplineSet
130 678 m 1
 300 190 l 1
 234 4 l 1
 14 637 l 1
 33 644 l 1
 38 646 l 1
 57 652 l 1
 61 655 l 1
 82 662 l 1
 87 663 l 1
 106 670 l 1
 113 671 l 1
 130 678 l 1
483 678 m 1
 600 637 l 1
 377 0 l 1
 268 0 l 1
 268 0 l 1
 246 0 l 1
 483 678 l 1
EndSplineSet
EndChar
StartChar: W
Encoding: 87 87 22
Width: 800
Flags: MW
HStem: 0 21G<171 171 171 210 210 210 210 219 219 223 223 245 245 249 249 271 271 278 278 297 507 507 507 547 547 547 547 634> 658 20G<131 131 341 378 378 387 387 394 394 413 413 420 420 442 442 446 446 468 468 468 669 669>
LayerCount: 2
Back
Fore
SplineSet
131 678 m 1
 225 278 l 1
 162 11 l 1
 9 650 l 1
 30 654 l 1
 35 656 l 1
 55 661 l 1
 59 661 l 1
 81 667 l 1
 85 667 l 1
 105 672 l 1
 109 674 l 1
 131 678 l 1
171 0 m 1
 330 672 l 1
 394 405 l 1
 297 0 l 1
 278 0 l 1
 271 0 l 1
 249 0 l 1
 245 0 l 1
 223 0 l 1
 219 0 l 1
 210 0 l 1
 210 0 l 1
 171 0 l 1
468 678 m 1
 562 278 l 1
 499 11 l 1
 405 405 l 1
 405 405 l 1
 402 420 l 1
 341 678 l 1
 378 678 l 1
 387 678 l 1
 394 678 l 1
 413 678 l 1
 420 678 l 1
 442 678 l 1
 446 678 l 1
 468 678 l 1
669 678 m 1
 790 650 l 1
 634 0 l 1
 547 0 l 1
 547 0 l 1
 507 0 l 1
 569 256 l 1
 569 256 l 1
 573 271 l 1
 669 678 l 1
EndSplineSet
EndChar
StartChar: X
Encoding: 88 88 23
Width: 596
Flags: MW
HStem: 0 21G<110 110 483 483> 658 20G<110 110 483 483>
LayerCount: 2
Back
Fore
SplineSet
291 448 m 1
 212 347 l 1
 13 601 l 1
 29 614 l 1
 33 616 l 1
 48 629 l 1
 53 634 l 1
 71 645 l 1
 75 649 l 1
 90 662 l 1
 95 665 l 1
 110 678 l 1
 291 448 l 1
377 338 m 1
 298 236 l 1
 298 236 l 1
 294 232 l 1
 110 0 l 1
 13 77 l 1
 212 329 l 1
 212 329 l 1
 214 336 l 1
 298 439 l 1
 305 448 l 1
 305 448 l 1
 483 678 l 1
 583 601 l 1
 384 347 l 1
 377 338 l 1
 377 338 l 1
305 227 m 1
 384 329 l 1
 583 77 l 1
 565 64 l 1
 563 60 l 1
 545 46 l 1
 541 44 l 1
 525 31 l 1
 521 29 l 1
 506 15 l 1
 501 11 l 1
 483 0 l 1
 305 227 l 1
EndSplineSet
EndChar
StartChar: Y
Encoding: 89 89 24
Width: 573
Flags: MW
HStem: 0 21G<225 351 225 225> 659 20G<111 111 465 465>
VStem: 225 126<0 301 301 318 0 301 318 354 0 318 0 354>
LayerCount: 2
Back
Fore
SplineSet
564 606 m 1
 362 334 l 1
 362 365 l 1
 232 365 l 1
 230 367 l 1
 239 380 l 1
 239 378 l 1
 243 382 l 1
 243 382 l 1
 256 400 l 1
 258 404 l 1
 258 404 l 1
 265 413 l 1
 287 444 l 1
 293 452 l 1
 293 452 l 1
 465 679 l 1
 480 668 l 1
 485 663 l 1
 502 652 l 1
 506 648 l 1
 522 637 l 1
 526 632 l 1
 544 621 l 1
 548 617 l 1
 564 606 l 1
111 679 m 1
 280 452 l 1
 214 365 l 1
 214 334 l 1
 10 606 l 1
 28 617 l 1
 32 621 l 1
 48 632 l 1
 52 637 l 1
 69 648 l 1
 74 652 l 1
 89 663 l 1
 94 668 l 1
 111 679 l 1
232 354 m 1
 247 354 l 1
 351 354 l 1
 351 318 l 1
 351 318 l 1
 351 301 l 1
 351 301 l 1
 351 0 l 1
 225 0 l 1
 225 301 l 1
 225 301 l 1
 225 318 l 1
 225 318 l 1
 225 354 l 1
 232 354 l 1
EndSplineSet
EndChar
StartChar: Z
Encoding: 90 90 25
Width: 464
Flags: MW
HStem: 0 124<95 167 167 180 180 447 95 95> 554 124<17 297 17 378>
LayerCount: 2
Back
Fore
SplineSet
378 671 m 1
 297 554 l 1
 17 554 l 1
 17 573 l 1
 17 580 l 1
 17 599 l 1
 17 606 l 1
 17 626 l 1
 17 632 l 1
 17 652 l 1
 17 656 l 1
 17 678 l 1
 378 678 l 1
 378 671 l 1
452 543 m 1
 173 135 l 1
 32 135 l 1
 28 137 l 1
 378 652 l 1
 389 667 l 1
 397 647 l 1
 402 641 l 1
 412 621 l 1
 415 615 l 1
 425 595 l 1
 428 589 l 1
 438 569 l 1
 443 563 l 1
 452 543 l 1
167 124 m 1
 180 124 l 1
 449 124 l 1
 447 0 l 1
 95 0 l 1
 34 119 l 1
 32 124 l 1
 48 124 l 1
 167 124 l 1
EndSplineSet
EndChar
StartChar: a
Encoding: 97 97 26
Width: 520
Flags: MW
HStem: 0 122<172 295 172 172> 330 122<168 295 168 295>
VStem: 33 124<133 314 314 314> 168 127<0 122 330 336 336 349 349 356 356 376 376 380 380 402 402 406 406 426 426 432 432 452> 306 46<61 116 61 116 61 116 127 133 133 319 319 325 336 391> 362 125<0 57 57 72 72 116 116 127 127 325 325 336 336 380 380 395 395 452 0 452>
LayerCount: 2
Back
Fore
SplineSet
332 325 m 1
 332 325 l 1
 352 325 l 1
 352 127 l 1
 336 127 l 1
 332 127 l 1
 332 127 l 1
 306 127 l 1
 306 133 l 1
 306 319 l 1
 306 325 l 1
 325 325 l 1
 332 325 l 1
325 417 m 1
 332 411 l 1
 352 391 l 1
 352 336 l 1
 332 336 l 1
 325 336 l 1
 306 336 l 1
 306 437 l 1
 325 417 l 1
168 432 m 1
 168 452 l 1
 295 452 l 1
 295 432 l 1
 295 426 l 1
 295 406 l 1
 295 402 l 1
 295 380 l 1
 295 376 l 1
 295 356 l 1
 295 349 l 1
 295 336 l 1
 295 336 l 1
 295 330 l 1
 168 330 l 1
 168 349 l 1
 168 356 l 1
 168 376 l 1
 168 380 l 1
 168 402 l 1
 168 406 l 1
 168 426 l 1
 168 432 l 1
59 133 m 1
 54 133 l 1
 33 133 l 1
 33 314 l 1
 54 334 l 1
 59 339 l 1
 81 360 l 1
 85 365 l 1
 105 387 l 1
 111 391 l 1
 131 411 l 1
 137 417 l 1
 157 437 l 1
 157 133 l 1
 137 133 l 1
 131 133 l 1
 111 133 l 1
 105 133 l 1
 85 133 l 1
 81 133 l 1
 59 133 l 1
50 122 m 1
 168 122 l 1
 295 122 l 1
 295 0 l 1
 172 0 l 1
 153 20 l 1
 146 26 l 1
 127 46 l 1
 122 50 l 1
 100 72 l 1
 96 76 l 1
 74 98 l 1
 70 103 l 1
 50 122 l 1
332 116 m 1
 336 116 l 1
 352 116 l 1
 352 61 l 1
 332 41 l 1
 325 35 l 1
 306 15 l 1
 306 116 l 1
 332 116 l 1
362 452 m 1
 487 452 l 1
 487 0 l 1
 362 0 l 1
 362 57 l 1
 362 72 l 1
 362 116 l 1
 362 127 l 1
 362 325 l 1
 362 336 l 1
 362 380 l 1
 362 395 l 1
 362 452 l 1
EndSplineSet
EndChar
StartChar: b
Encoding: 98 98 27
Width: 494
Flags: MW
HStem: 0 122<77 466 96 466 103 466 123 466 129 466 217 466 217 343> 330 122<221 348 221 348> 659 20G<24 46 46 51 51 72 72 77 77 96 96 103 103 123 123 129 129 149 149 149>
VStem: 24 48<133 319> 24 125<0 57 395 679> 83 123<140 319> 359 124<133 314 133 319 133 437 133 437>
LayerCount: 2
Back
Fore
SplineSet
459 336 m 1xea
 483 314 l 1
 483 133 l 1
 459 133 l 1
 455 133 l 1
 435 133 l 1
 428 133 l 1
 409 133 l 1
 402 133 l 1
 383 133 l 1
 376 133 l 1
 359 133 l 1
 359 319 l 1
 359 437 l 1
 376 419 l 1
 383 413 l 1
 402 393 l 1
 409 387 l 1
 428 367 l 1
 435 363 l 1
 455 341 l 1
 459 336 l 1xea
123 356 m 1
 145 376 l 1
 149 380 l 1
 171 402 l 1
 175 406 l 1
 195 428 l 1
 201 432 l 1
 221 452 l 1
 348 452 l 1
 348 432 l 1
 348 428 l 1
 348 406 l 1
 348 402 l 1
 348 380 l 1
 348 376 l 1
 348 356 l 1
 348 349 l 1
 348 330 l 1
 99 330 l 1
 118 349 l 1
 123 356 l 1
72 319 m 1xf6
 72 133 l 1xf6
 149 57 l 1
 149 0 l 1xea
 129 0 l 1
 123 0 l 1
 103 0 l 1
 96 0 l 1
 77 0 l 1
 72 0 l 1
 51 0 l 1
 46 0 l 1
 24 0 l 1
 24 679 l 1
 46 679 l 1
 51 679 l 1
 72 679 l 1xf6
 77 679 l 1
 96 679 l 1
 103 679 l 1
 123 679 l 1
 129 679 l 1
 149 679 l 1
 149 395 l 1xea
 72 319 l 1
 72 319 l 1
 72 319 l 1xf6
179 319 m 1
 186 319 l 1
 206 319 l 1
 206 133 l 1
 206 15 l 1
 186 35 l 1
 179 41 l 1
 160 61 l 1
 155 68 l 1
 134 87 l 1
 129 92 l 1
 107 114 l 1
 103 118 l 1
 83 140 l 1
 83 319 l 1
 103 319 l 1
 107 319 l 1
 129 319 l 1
 134 319 l 1
 155 319 l 1
 160 319 l 1
 179 319 l 1
217 103 m 1
 217 122 l 1
 466 122 l 1
 446 103 l 1
 442 98 l 1
 420 76 l 1
 415 72 l 1
 396 50 l 1
 389 46 l 1
 369 26 l 1
 363 20 l 1
 343 0 l 1
 217 0 l 1
 217 20 l 1
 217 26 l 1
 217 46 l 1
 217 50 l 1
 217 72 l 1
 217 76 l 1
 217 98 l 1
 217 103 l 1
EndSplineSet
EndChar
StartChar: c
Encoding: 99 99 28
Width: 391
Flags: MW
HStem: 0 122<154 376 154 154> 330 122<149 376 149 376>
VStem: 14 124<133 314 314 314> 149 227<0 122 330 349 349 356 356 376 376 380 380 402 402 406 406 428 428 432 432 452>
LayerCount: 2
Back
Fore
SplineSet
149 452 m 1
 376 452 l 1
 376 432 l 1
 376 428 l 1
 376 406 l 1
 376 402 l 1
 376 380 l 1
 376 376 l 1
 376 356 l 1
 376 349 l 1
 376 330 l 1
 149 330 l 1
 149 349 l 1
 149 356 l 1
 149 376 l 1
 149 380 l 1
 149 402 l 1
 149 406 l 1
 149 428 l 1
 149 432 l 1
 149 452 l 1
29 122 m 1
 149 122 l 1
 376 122 l 1
 376 0 l 1
 154 0 l 1
 29 122 l 1
40 133 m 1
 34 133 l 1
 14 133 l 1
 14 314 l 1
 34 334 l 1
 40 339 l 1
 60 360 l 1
 66 365 l 1
 86 387 l 1
 90 391 l 1
 112 411 l 1
 117 417 l 1
 138 437 l 1
 138 319 l 1
 138 133 l 1
 117 133 l 1
 112 133 l 1
 90 133 l 1
 86 133 l 1
 66 133 l 1
 60 133 l 1
 40 133 l 1
EndSplineSet
EndChar
StartChar: d
Encoding: 100 100 29
Width: 484
Flags: MW
HStem: 0 124<151 273 151 151> 328 124<147 273 147 273> 658 20G<340 462 462 462>
VStem: 12 124<135 313 313 313> 147 126<0 124 328 334 334 348 348 354 354 374 374 380 380 400 400 404 404 426 426 430 430 452> 284 45<61 117 61 117 61 117 128 135 135 317 317 324 334 389> 340 122<0 56 56 72 72 117 117 128 128 324 324 334 334 378 378 393 393 678 0 678>
LayerCount: 2
Back
Fore
SplineSet
308 324 m 1
 308 324 l 1
 329 324 l 1
 329 128 l 1
 319 128 l 1
 308 128 l 1
 308 128 l 1
 284 128 l 1
 284 135 l 1
 284 317 l 1
 284 324 l 1
 303 324 l 1
 308 324 l 1
303 415 m 1
 308 411 l 1
 329 389 l 1
 329 334 l 1
 308 334 l 1
 303 334 l 1
 284 334 l 1
 284 437 l 1
 303 415 l 1
147 430 m 1
 147 452 l 1
 273 452 l 1
 273 430 l 1
 273 426 l 1
 273 404 l 1
 273 400 l 1
 273 380 l 1
 273 374 l 1
 273 354 l 1
 273 348 l 1
 273 334 l 1
 273 334 l 1
 273 328 l 1
 147 328 l 1
 147 348 l 1
 147 354 l 1
 147 374 l 1
 147 380 l 1
 147 400 l 1
 147 404 l 1
 147 426 l 1
 147 430 l 1
38 135 m 1
 34 135 l 1
 12 135 l 1
 12 313 l 1
 34 332 l 1
 38 339 l 1
 58 358 l 1
 64 365 l 1
 84 384 l 1
 91 389 l 1
 110 411 l 1
 117 415 l 1
 136 437 l 1
 136 135 l 1
 117 135 l 1
 110 135 l 1
 91 135 l 1
 84 135 l 1
 64 135 l 1
 58 135 l 1
 38 135 l 1
28 124 m 1
 147 124 l 1
 273 124 l 1
 273 0 l 1
 151 0 l 1
 132 20 l 1
 125 26 l 1
 106 46 l 1
 99 52 l 1
 80 72 l 1
 75 78 l 1
 54 98 l 1
 49 102 l 1
 28 124 l 1
308 117 m 1
 319 117 l 1
 329 117 l 1
 329 61 l 1
 308 41 l 1
 303 37 l 1
 284 15 l 1
 284 117 l 1
 308 117 l 1
340 678 m 1
 462 678 l 1
 462 0 l 1
 340 0 l 1
 340 56 l 1
 340 72 l 1
 340 117 l 1
 340 128 l 1
 340 324 l 1
 340 334 l 1
 340 378 l 1
 340 393 l 1
 340 678 l 1
EndSplineSet
EndChar
StartChar: e
Encoding: 101 101 31
Width: 475
Flags: MW
HStem: 0 125<164 395 164 164> 161 125<159 329 159 329> 328 123<159 322 159 329 159 322 159 448>
VStem: 23 125<136 312 312 312> 159 170<125 286 161 180 180 187 187 207 207 213 213 233 233 238 238 260 260 264 264 286 161 286 161 348 161 354 161 374 161 378 161 400 161 405 161 427 161 431 161 451 161 451>
LayerCount: 2
Back
Fore
SplineSet
448 328 m 1
 329 328 l 1
 159 328 l 1
 159 348 l 1
 159 354 l 1
 159 374 l 1
 159 378 l 1
 159 400 l 1
 159 405 l 1
 159 427 l 1
 159 431 l 1
 159 451 l 1
 322 451 l 1
 344 431 l 1
 349 427 l 1
 371 405 l 1
 375 400 l 1
 395 378 l 1
 401 374 l 1
 421 354 l 1
 428 348 l 1
 448 328 l 1
38 125 m 1
 159 125 l 1
 395 125 l 1
 395 0 l 1
 164 0 l 1
 38 125 l 1
49 136 m 1
 45 136 l 1
 23 136 l 1
 23 312 l 1
 45 332 l 1
 49 337 l 1
 69 359 l 1
 76 363 l 1
 96 385 l 1
 102 389 l 1
 122 409 l 1
 126 416 l 1
 148 436 l 1
 148 317 l 1
 148 136 l 1
 126 136 l 1
 122 136 l 1
 102 136 l 1
 96 136 l 1
 76 136 l 1
 69 136 l 1
 49 136 l 1
159 260 m 1
 159 264 l 1
 159 286 l 1
 329 286 l 1
 329 161 l 1
 159 161 l 1
 159 180 l 1
 159 187 l 1
 159 207 l 1
 159 213 l 1
 159 233 l 1
 159 238 l 1
 159 260 l 1
443 317 m 1
 463 317 l 1
 463 301 l 1
 443 279 l 1
 437 275 l 1
 417 255 l 1
 412 249 l 1
 390 229 l 1
 386 222 l 1
 364 202 l 1
 360 196 l 1
 340 176 l 1
 340 297 l 1
 340 297 l 1
 340 317 l 1
 360 317 l 1
 364 317 l 1
 386 317 l 1
 390 317 l 1
 412 317 l 1
 417 317 l 1
 437 317 l 1
 443 317 l 1
EndSplineSet
EndChar
StartChar: f
Encoding: 102 102 32
Width: 357
Flags: MW
HStem: 0 21G<99 223 99 99> 328 124<6 88 6 88 6 99 234 342> 554 124<234 338 234 338>
VStem: 6 82<328 348 348 354 354 374 374 380 380 400 400 406 406 426 426 430 430 452 328 452> 99 124<0 317 317 328 328 452 452 463 463 539 539 539> 234 104<328 573 452 573 554 573 573 580 580 599 599 606 606 626 626 632 632 652 652 656 656 678>
LayerCount: 2
Back
Fore
SplineSet
338 573 m 1
 338 554 l 1
 234 554 l 1
 234 573 l 1
 234 580 l 1
 234 599 l 1
 234 606 l 1
 234 626 l 1
 234 632 l 1
 234 652 l 1
 234 656 l 1
 234 678 l 1
 338 678 l 1
 338 656 l 1
 338 652 l 1
 338 632 l 1
 338 626 l 1
 338 606 l 1
 338 599 l 1
 338 580 l 1
 338 573 l 1
6 430 m 1
 6 452 l 1
 88 452 l 1
 88 328 l 1
 6 328 l 1
 6 348 l 1
 6 354 l 1
 6 374 l 1
 6 380 l 1
 6 400 l 1
 6 406 l 1
 6 426 l 1
 6 430 l 1
99 463 m 1
 99 539 l 1
 223 662 l 1
 223 543 l 1
 223 463 l 1
 223 452 l 1
 223 328 l 1
 223 317 l 1
 223 0 l 1
 99 0 l 1
 99 317 l 1
 99 328 l 1
 99 452 l 1
 99 463 l 1
234 452 m 1
 342 452 l 1
 342 430 l 1
 342 426 l 1
 342 406 l 1
 342 400 l 1
 342 380 l 1
 342 374 l 1
 342 354 l 1
 342 348 l 1
 342 328 l 1
 234 328 l 1
 234 452 l 1
EndSplineSet
EndChar
StartChar: g
Encoding: 103 103 33
Width: 460
Flags: MW
HStem: -228 124<164 299 164 304> -1 124<158 304 158 158> 328 124<153 304 153 304>
VStem: 18 124<134 312 312 312> 153 151<-104 -104 -104 -93 -213 -104 -104 -47 328 347 347 354 354 374 374 380 380 400 400 406 406 426 426 430 430 452> 315 124<-93 -12 -12 134 134 317 317 452 -93 452>
CounterMasks: 1 1c
LayerCount: 2
Back
Fore
SplineSet
304 347 m 1
 304 328 l 1
 153 328 l 1
 153 347 l 1
 153 354 l 1
 153 374 l 1
 153 380 l 1
 153 400 l 1
 153 406 l 1
 153 426 l 1
 153 430 l 1
 153 452 l 1
 304 452 l 1
 304 430 l 1
 304 426 l 1
 304 406 l 1
 304 400 l 1
 304 380 l 1
 304 374 l 1
 304 354 l 1
 304 347 l 1
44 134 m 1
 40 134 l 1
 18 134 l 1
 18 312 l 1
 40 332 l 1
 44 339 l 1
 66 358 l 1
 70 365 l 1
 90 384 l 1
 97 389 l 1
 116 411 l 1
 123 415 l 1
 142 437 l 1
 142 317 l 1
 142 134 l 1
 123 134 l 1
 116 134 l 1
 97 134 l 1
 90 134 l 1
 70 134 l 1
 66 134 l 1
 44 134 l 1
304 123 m 1
 304 -1 l 1
 158 -1 l 1
 33 123 l 1
 153 123 l 1
 304 123 l 1
29 -89 m 1
 29 -47 l 1
 153 -47 l 1
 153 -93 l 1
 153 -213 l 1
 29 -89 l 1
164 -104 m 1
 304 -104 l 1
 424 -104 l 1
 404 -124 l 1
 397 -130 l 1
 378 -150 l 1
 371 -156 l 1
 352 -176 l 1
 345 -182 l 1
 326 -202 l 1
 321 -206 l 1
 299 -228 l 1
 164 -228 l 1
 164 -206 l 1
 164 -202 l 1
 164 -182 l 1
 164 -176 l 1
 164 -156 l 1
 164 -150 l 1
 164 -130 l 1
 164 -124 l 1
 164 -104 l 1
419 452 m 1
 439 452 l 1
 439 -93 l 1
 419 -93 l 1
 413 -93 l 1
 393 -93 l 1
 387 -93 l 1
 367 -93 l 1
 363 -93 l 1
 341 -93 l 1
 336 -93 l 1
 315 -93 l 1
 315 -12 l 1
 315 134 l 1
 315 317 l 1
 315 452 l 1
 336 452 l 1
 341 452 l 1
 363 452 l 1
 367 452 l 1
 387 452 l 1
 393 452 l 1
 413 452 l 1
 419 452 l 1
EndSplineSet
EndChar
StartChar: h
Encoding: 104 104 34
Width: 444
Flags: MW
HStem: 0 21G<23 23 23 42 42 49 49 68 68 75 75 95 95 99 99 121 121 125 125 147 304 304 304 426> 327 124<38 147 38 147 147 158 162 293> 658 20G<23 42 42 49 49 68 68 75 75 95 95 99 99 121 121 125 125 147 147 147>
VStem: 23 124<0 316 0 316 0 436 451 678> 304 122<0 312 0 316 0 436>
LayerCount: 2
Back
Fore
SplineSet
147 678 m 1
 147 451 l 1
 23 327 l 1
 23 678 l 1
 42 678 l 1
 49 678 l 1
 68 678 l 1
 75 678 l 1
 95 678 l 1
 99 678 l 1
 121 678 l 1
 125 678 l 1
 147 678 l 1
23 0 m 1
 23 316 l 1
 147 316 l 1
 147 0 l 1
 125 0 l 1
 121 0 l 1
 99 0 l 1
 95 0 l 1
 75 0 l 1
 68 0 l 1
 49 0 l 1
 42 0 l 1
 23 0 l 1
158 447 m 1
 162 451 l 1
 293 451 l 1
 293 432 l 1
 293 425 l 1
 293 405 l 1
 293 399 l 1
 293 379 l 1
 293 373 l 1
 293 353 l 1
 293 349 l 1
 293 327 l 1
 158 327 l 1
 147 327 l 1
 38 327 l 1
 58 349 l 1
 64 353 l 1
 84 373 l 1
 90 379 l 1
 110 399 l 1
 114 405 l 1
 136 425 l 1
 140 432 l 1
 147 436 l 1
 158 447 l 1
 158 447 l 1
304 436 m 1
 426 312 l 1
 426 0 l 1
 304 0 l 1
 304 316 l 1
 304 436 l 1
EndSplineSet
EndChar
StartChar: i
Encoding: 105 105 35
Width: 187
Flags: MW
HStem: 0 21G<32 32 32 153> 516 124<32 153 32 153>
VStem: 32 121<0 451 0 451 516 640>
LayerCount: 2
Back
Fore
SplineSet
32 640 m 1
 153 640 l 1
 153 516 l 1
 32 516 l 1
 32 640 l 1
32 0 m 1
 32 451 l 1
 153 451 l 1
 153 0 l 1
 32 0 l 1
EndSplineSet
EndChar
StartChar: j
Encoding: 106 106 36
Width: 339
Flags: MW
HStem: -242 127<75 177 75 182> 521 125<193 320 193 320>
VStem: -64 128<-99 -32 -227 -32> 193 127<-104 452 -104 452 521 646>
LayerCount: 2
Back
Fore
SplineSet
-64 -99 m 1
 -64 -32 l 1
 64 -32 l 1
 64 -104 l 1
 64 -227 l 1
 -64 -99 l 1
75 -115 m 1
 182 -115 l 1
 305 -115 l 1
 282 -137 l 1
 278 -142 l 1
 258 -162 l 1
 251 -168 l 1
 231 -189 l 1
 224 -195 l 1
 204 -215 l 1
 198 -222 l 1
 177 -242 l 1
 75 -242 l 1
 75 -222 l 1
 75 -215 l 1
 75 -195 l 1
 75 -189 l 1
 75 -168 l 1
 75 -162 l 1
 75 -142 l 1
 75 -137 l 1
 75 -115 l 1
294 452 m 1
 298 452 l 1
 320 452 l 1
 320 -104 l 1
 298 -104 l 1
 294 -104 l 1
 273 -104 l 1
 267 -104 l 1
 247 -104 l 1
 240 -104 l 1
 220 -104 l 1
 213 -104 l 1
 193 -104 l 1
 193 452 l 1
 213 452 l 1
 220 452 l 1
 240 452 l 1
 247 452 l 1
 267 452 l 1
 273 452 l 1
 294 452 l 1
193 646 m 1
 320 646 l 1
 320 521 l 1
 193 521 l 1
 193 646 l 1
EndSplineSet
EndChar
StartChar: k
Encoding: 107 107 37
Width: 379
Flags: MW
HStem: 0 21G<20 39 20 20 39 46 46 66 66 70 70 92 92 96 96 118 118 122 122 142 292 292> 658 20G<20 39 39 46 46 66 66 70 70 92 92 96 96 118 118 122 122 142 142 142>
VStem: 20 72<137 318> 20 122<0 98 355 678>
LayerCount: 2
Back
Fore
SplineSet
118 299 m 1xe0
 107 316 l 1
 292 451 l 1
 303 434 l 1
 308 429 l 1
 319 414 l 1
 323 410 l 1
 334 392 l 1
 338 388 l 1
 349 373 l 1
 353 368 l 1
 364 351 l 1
 203 233 l 1
 122 294 l 1
 118 299 l 1xe0
92 318 m 1
 92 137 l 1xe0
 142 98 l 1
 142 0 l 1xd0
 122 0 l 1
 118 0 l 1
 96 0 l 1
 92 0 l 1
 70 0 l 1
 66 0 l 1
 46 0 l 1
 39 0 l 1
 20 0 l 1
 20 678 l 1
 39 678 l 1
 46 678 l 1
 66 678 l 1
 70 678 l 1
 92 678 l 1xe0
 96 678 l 1
 118 678 l 1
 122 678 l 1
 142 678 l 1
 142 355 l 1xd0
 92 318 l 1
101 296 m 1
 366 98 l 1
 292 0 l 1
 153 102 l 1
 153 102 l 1
 146 109 l 1
 101 142 l 1
 101 296 l 1
EndSplineSet
EndChar
StartChar: l
Encoding: 108 108 38
Width: 226
Flags: MW
HStem: 0 21G<158 215 158 158> 659 20G<18 40 40 45 45 66 66 71 71 90 90 97 97 117 117 123 123 143 143 143>
VStem: 18 125<135 679 135 679>
LayerCount: 2
Back
Fore
SplineSet
45 135 m 1
 40 135 l 1
 18 135 l 1
 18 679 l 1
 40 679 l 1
 45 679 l 1
 66 679 l 1
 71 679 l 1
 90 679 l 1
 97 679 l 1
 117 679 l 1
 123 679 l 1
 143 679 l 1
 143 135 l 1
 123 135 l 1
 117 135 l 1
 97 135 l 1
 90 135 l 1
 71 135 l 1
 66 135 l 1
 45 135 l 1
154 124 m 1
 215 124 l 1
 215 0 l 1
 158 0 l 1
 34 124 l 1
 154 124 l 1
EndSplineSet
EndChar
StartChar: m
Encoding: 109 109 39
Width: 666
Flags: MW
HStem: 2 21G<24 24 24 46 46 50 50 70 70 76 76 96 96 102 102 122 122 128 128 147 273 273 273 292 292 299 299 318 318 323 323 344 344 349 349 370 370 375 375 394 520 520 520 643> 329 134<24 46 39 39 39 46 46 50 50 70 70 76 76 96 96 102 102 122 122 128 128 147 24 158 24 262>
VStem: 24 123<2 318 2 318 452 463> 24 238<2 348 318 348 329 348 348 355 355 374 374 381 381 400 400 407 407 426 426 431 431 452 329 463 329 463> 273 121<2 314 2 318 2 318 2 437> 273 236<2 348 318 348 329 348 348 355 355 374 374 381 381 400 400 407 407 426 426 431 431 437 437 437> 520 123<2 314 2 318 2 437>
LayerCount: 2
Back
Fore
SplineSet
147 463 m 1xea
 147 452 l 1
 24 329 l 1
 24 463 l 1
 46 463 l 1
 50 463 l 1
 70 463 l 1
 76 463 l 1
 96 463 l 1
 102 463 l 1
 122 463 l 1
 128 463 l 1
 147 463 l 1xea
24 2 m 1
 24 318 l 1
 147 318 l 1
 147 2 l 1
 128 2 l 1
 122 2 l 1
 102 2 l 1
 96 2 l 1
 76 2 l 1
 70 2 l 1
 50 2 l 1
 46 2 l 1
 24 2 l 1
143 431 m 1
 163 452 l 1
 262 452 l 1
 262 431 l 1
 262 426 l 1
 262 407 l 1
 262 400 l 1
 262 381 l 1
 262 374 l 1
 262 355 l 1
 262 348 l 1
 262 329 l 1xda
 158 329 l 1
 147 329 l 1
 39 329 l 1
 61 348 l 1
 65 355 l 1
 87 374 l 1
 91 381 l 1
 111 400 l 1
 117 407 l 1
 137 426 l 1
 143 431 l 1
323 385 m 1
 327 383 l 1
 273 329 l 1
 273 437 l 1
 292 415 l 1
 299 411 l 1
 318 392 l 1
 323 385 l 1
273 318 m 1
 390 318 l 1
 394 314 l 1
 394 2 l 1
 375 2 l 1
 370 2 l 1
 349 2 l 1
 344 2 l 1
 323 2 l 1
 318 2 l 1
 299 2 l 1
 292 2 l 1
 273 2 l 1
 273 318 l 1
390 431 m 1
 411 452 l 1
 509 452 l 1
 509 431 l 1
 509 426 l 1
 509 407 l 1
 509 400 l 1
 509 381 l 1
 509 374 l 1
 509 355 l 1
 509 348 l 1
 509 329 l 1xe6
 394 329 l 1
 379 329 l 1
 288 329 l 1
 308 348 l 1
 314 355 l 1
 334 374 l 1
 334 374 l 1
 334 374 l 1
 342 383 l 1
 342 383 l 1
 360 400 l 1
 364 407 l 1
 386 426 l 1
 390 431 l 1
520 437 m 1
 643 314 l 1
 643 2 l 1
 520 2 l 1
 520 318 l 1
 520 437 l 1
EndSplineSet
EndChar
StartChar: n
Encoding: 110 110 40
Width: 450
Flags: MW
HStem: 0 21G<29 29 29 49 49 55 55 75 75 82 82 101 101 106 106 127 127 132 132 151 311 311 311 433> 328 124<29 151 44 151 44 151 151 162 169 300> 443 20G<29 49 49 55 55 75 75 82 82 101 101 106 106 127 127 132 132 151 151 151>
VStem: 29 122<0 317 0 317 452 463> 311 122<0 312 0 317 0 437>
LayerCount: 2
Back
Fore
SplineSet
151 463 m 1xb8
 151 452 l 1
 29 328 l 1xd8
 29 463 l 1
 49 463 l 1
 55 463 l 1
 75 463 l 1
 82 463 l 1
 101 463 l 1
 106 463 l 1
 127 463 l 1
 132 463 l 1
 151 463 l 1xb8
29 0 m 1
 29 317 l 1
 151 317 l 1
 151 0 l 1
 132 0 l 1
 127 0 l 1
 106 0 l 1
 101 0 l 1
 82 0 l 1
 75 0 l 1
 55 0 l 1
 49 0 l 1
 29 0 l 1
147 432 m 1
 169 452 l 1
 300 452 l 1
 300 432 l 1
 300 426 l 1
 300 406 l 1
 300 400 l 1
 300 380 l 1
 300 376 l 1
 300 354 l 1
 300 349 l 1
 300 328 l 1
 162 328 l 1
 151 328 l 1
 44 328 l 1xd8
 64 349 l 1
 71 354 l 1
 90 376 l 1
 97 380 l 1
 117 400 l 1
 121 406 l 1
 143 426 l 1
 147 432 l 1
311 437 m 1
 433 312 l 1
 433 0 l 1
 311 0 l 1
 311 317 l 1
 311 437 l 1
EndSplineSet
EndChar
StartChar: o
Encoding: 111 111 41
Width: 437
Flags: MW
HStem: 0 124<150 293 150 150> 327 124<146 289 146 413 146 289>
VStem: 12 123<134 312 312 312> 304 124<15 317 139 317 139 317 139 317>
LayerCount: 2
Back
Fore
SplineSet
391 349 m 1
 413 327 l 1
 146 327 l 1
 146 349 l 1
 146 353 l 1
 146 373 l 1
 146 379 l 1
 146 399 l 1
 146 405 l 1
 146 425 l 1
 146 431 l 1
 146 451 l 1
 289 451 l 1
 309 431 l 1
 315 425 l 1
 335 405 l 1
 341 399 l 1
 361 379 l 1
 365 373 l 1
 387 353 l 1
 391 349 l 1
40 134 m 1
 35 134 l 1
 12 134 l 1
 12 312 l 1
 35 334 l 1
 40 340 l 1
 59 360 l 1
 66 366 l 1
 85 386 l 1
 92 392 l 1
 111 412 l 1
 118 416 l 1
 135 436 l 1
 135 317 l 1
 135 134 l 1
 118 134 l 1
 111 134 l 1
 92 134 l 1
 85 134 l 1
 66 134 l 1
 59 134 l 1
 40 134 l 1
49 104 m 1
 29 124 l 1
 293 124 l 1
 293 104 l 1
 293 98 l 1
 293 78 l 1
 293 72 l 1
 293 52 l 1
 293 48 l 1
 293 26 l 1
 293 22 l 1
 293 0 l 1
 150 0 l 1
 131 22 l 1
 124 26 l 1
 105 48 l 1
 101 52 l 1
 79 72 l 1
 75 78 l 1
 53 98 l 1
 49 104 l 1
406 317 m 1
 428 317 l 1
 428 139 l 1
 406 119 l 1
 402 113 l 1
 380 93 l 1
 376 87 l 1
 356 67 l 1
 350 63 l 1
 330 41 l 1
 324 37 l 1
 304 15 l 1
 304 134 l 1
 304 317 l 1
 324 317 l 1
 330 317 l 1
 350 317 l 1
 356 317 l 1
 376 317 l 1
 380 317 l 1
 402 317 l 1
 406 317 l 1
EndSplineSet
EndChar
StartChar: p
Encoding: 112 112 42
Width: 505
Flags: MW
HStem: -225 21G<34 56 34 34 56 60 60 80 80 86 86 106 106 112 112 132 132 139 139 158> 0 124<225 351 225 472> 327 124<106 112 112 132 132 139 139 158 230 355 34 106>
VStem: 34 46<134 317> 34 124<-225 56 392 451> 91 123<139 317> 366 122<134 312 134 317 134 434>
LayerCount: 2
Back
Fore
SplineSet
468 332 m 1xea
 488 312 l 1
 488 134 l 1
 468 134 l 1
 462 134 l 1
 442 134 l 1
 438 134 l 1
 416 134 l 1
 412 134 l 1
 390 134 l 1
 386 134 l 1
 366 134 l 1
 366 317 l 1
 366 434 l 1
 386 414 l 1
 390 410 l 1
 412 388 l 1
 416 384 l 1
 438 362 l 1
 442 358 l 1
 462 338 l 1
 468 332 l 1xea
158 377 m 1
 158 377 l 1
 169 388 l 1
 169 388 l 1
 178 399 l 1
 184 403 l 1
 204 425 l 1
 210 429 l 1
 230 451 l 1
 355 451 l 1
 355 429 l 1
 355 425 l 1
 355 403 l 1
 355 399 l 1
 355 379 l 1
 355 373 l 1
 355 353 l 1
 355 347 l 1
 355 327 l 1
 106 327 l 1
 128 347 l 1
 132 353 l 1
 154 373 l 1
 158 377 l 1
80 317 m 1xf6
 80 134 l 1xf6
 158 56 l 1
 158 -225 l 1xea
 139 -225 l 1
 132 -225 l 1
 112 -225 l 1
 106 -225 l 1
 86 -225 l 1
 80 -225 l 1
 60 -225 l 1
 56 -225 l 1
 34 -225 l 1
 34 451 l 1
 56 451 l 1
 60 451 l 1
 80 451 l 1xf6
 86 451 l 1
 106 451 l 1
 112 451 l 1
 132 451 l 1
 139 451 l 1
 158 451 l 1
 158 392 l 1xea
 80 317 l 1
 80 317 l 1
 80 317 l 1xf6
191 317 m 1
 195 317 l 1
 214 317 l 1
 214 134 l 1
 214 15 l 1
 195 35 l 1
 191 39 l 1
 171 59 l 1
 165 65 l 1
 145 85 l 1
 139 91 l 1
 119 111 l 1
 112 117 l 1
 91 139 l 1
 91 317 l 1
 112 317 l 1
 119 317 l 1
 139 317 l 1
 145 317 l 1
 165 317 l 1
 171 317 l 1
 191 317 l 1
225 102 m 1
 225 124 l 1
 472 124 l 1
 453 102 l 1
 446 98 l 1
 427 76 l 1
 423 72 l 1
 401 52 l 1
 397 46 l 1
 375 26 l 1
 370 20 l 1
 351 0 l 1
 225 0 l 1
 225 20 l 1
 225 26 l 1
 225 46 l 1
 225 52 l 1
 225 72 l 1
 225 76 l 1
 225 98 l 1
 225 102 l 1
EndSplineSet
EndChar
StartChar: q
Encoding: 113 113 43
Width: 486
Flags: MW
HStem: -226 21G<346 470 346 346> 0 124<153 279 153 153> 328 124<148 274 148 335 148 274>
VStem: 14 124<135 313 313 313> 148 187<328 348 348 354 354 374 374 380 380 389 61 400 61 404 61 426 61 430 61 452 61 452> 290 45<61 135 135 317 61 317> 346 124<-226 452 -226 452>
LayerCount: 2
Back
Fore
SplineSet
320 404 m 1xfa
 324 400 l 1
 335 389 l 1
 335 328 l 1
 148 328 l 1
 148 348 l 1
 148 354 l 1
 148 374 l 1
 148 380 l 1
 148 400 l 1
 148 404 l 1
 148 426 l 1
 148 430 l 1
 148 452 l 1
 274 452 l 1
 294 430 l 1
 300 426 l 1
 320 404 l 1xfa
42 135 m 1
 38 135 l 1
 14 135 l 1
 14 313 l 1
 38 334 l 1
 42 339 l 1
 62 361 l 1
 68 365 l 1
 88 387 l 1
 94 391 l 1
 114 411 l 1
 120 417 l 1
 138 434 l 1
 138 317 l 1
 138 135 l 1
 120 135 l 1
 114 135 l 1
 94 135 l 1
 88 135 l 1
 68 135 l 1
 62 135 l 1
 42 135 l 1
51 102 m 1
 31 124 l 1
 279 124 l 1
 279 102 l 1
 279 98 l 1
 279 76 l 1
 279 72 l 1
 279 52 l 1
 279 46 l 1
 279 26 l 1
 279 20 l 1
 279 0 l 1
 153 0 l 1
 133 20 l 1
 127 26 l 1
 107 46 l 1
 101 52 l 1
 81 72 l 1
 77 76 l 1
 55 98 l 1
 51 102 l 1
309 317 m 1
 316 317 l 1
 335 317 l 1
 335 61 l 1
 316 41 l 1
 309 35 l 1
 290 15 l 1
 290 135 l 1
 290 317 l 1xf6
 309 317 l 1
346 452 m 1
 470 452 l 1
 470 -226 l 1
 346 -226 l 1
 346 452 l 1
EndSplineSet
EndChar
StartChar: r
Encoding: 114 114 44
Width: 323
Flags: MW
HStem: 0 21G<21 21 21 40 40 45 45 67 67 71 71 93 93 97 97 117 117 123 123 143> 330 122<36 143 143 143 158 320> 443 20G<21 40 40 45 45 67 67 71 71 93 93 97 97 117 117 123 123 143 143 143>
VStem: 21 122<0 319 0 319 0 437 452 463>
LayerCount: 2
Back
Fore
SplineSet
143 463 m 1xb0
 143 452 l 1
 21 330 l 1xd0
 21 463 l 1
 40 463 l 1
 45 463 l 1
 67 463 l 1
 71 463 l 1
 93 463 l 1
 97 463 l 1
 117 463 l 1
 123 463 l 1
 143 463 l 1xb0
21 0 m 1
 21 319 l 1
 143 319 l 1
 143 0 l 1
 123 0 l 1
 117 0 l 1
 97 0 l 1
 93 0 l 1
 71 0 l 1
 67 0 l 1
 45 0 l 1
 40 0 l 1
 21 0 l 1
158 452 m 1xd0
 320 452 l 1
 320 330 l 1
 36 330 l 1
 143 437 l 1
 143 437 l 1
 154 448 l 1
 154 448 l 1
 158 452 l 1xd0
EndSplineSet
EndChar
StartChar: s
Encoding: 115 115 45
Width: 474
Flags: MW
HStem: 0 124<60 318 60 322> 163 123<151 322 151 151> 327 124<146 398 146 398>
LayerCount: 2
Back
Fore
SplineSet
398 349 m 1
 398 327 l 1
 146 327 l 1
 146 349 l 1
 146 353 l 1
 146 373 l 1
 146 379 l 1
 146 399 l 1
 146 405 l 1
 146 425 l 1
 146 431 l 1
 146 451 l 1
 398 451 l 1
 398 431 l 1
 398 425 l 1
 398 405 l 1
 398 399 l 1
 398 379 l 1
 398 373 l 1
 398 353 l 1
 398 349 l 1
38 297 m 1
 33 297 l 1
 14 297 l 1
 14 312 l 1
 33 332 l 1
 38 338 l 1
 60 358 l 1
 64 364 l 1
 86 384 l 1
 90 390 l 1
 109 410 l 1
 116 414 l 1
 135 436 l 1
 135 317 l 1
 135 297 l 1
 116 297 l 1
 109 297 l 1
 90 297 l 1
 86 297 l 1
 64 297 l 1
 60 297 l 1
 38 297 l 1
79 234 m 1
 75 241 l 1
 55 260 l 1
 49 267 l 1
 29 286 l 1
 146 286 l 1
 322 286 l 1
 322 267 l 1
 322 260 l 1
 322 241 l 1
 322 234 l 1
 322 215 l 1
 322 208 l 1
 322 189 l 1
 322 184 l 1
 322 163 l 1
 151 163 l 1
 131 184 l 1
 127 189 l 1
 105 208 l 1
 101 215 l 1
 79 234 l 1
60 124 m 1
 322 124 l 1
 441 124 l 1
 318 0 l 1
 60 0 l 1
 60 124 l 1
435 169 m 1
 456 147 l 1
 456 134 l 1
 435 134 l 1
 430 134 l 1
 409 134 l 1
 404 134 l 1
 385 134 l 1
 378 134 l 1
 359 134 l 1
 352 134 l 1
 333 134 l 1
 333 152 l 1
 333 271 l 1
 352 251 l 1
 359 245 l 1
 378 225 l 1
 385 219 l 1
 404 199 l 1
 409 193 l 1
 430 173 l 1
 435 169 l 1
EndSplineSet
EndChar
StartChar: t
Encoding: 116 116 46
Width: 346
Flags: MW
HStem: 0 124<246 332 246 246> 327 124<14 96 14 96 241 335> 533 20G<107 127 127 133 133 153 153 159 159 179 179 185 185 205 205 209 209 231 231 231>
VStem: 14 82<327 347 347 353 353 373 373 379 379 399 399 403 403 425 425 429 429 451 327 451> 107 124<134 317 317 327 327 451 451 462 462 553> 241 94<327 347 347 353 353 373 373 379 379 399 399 403 403 425 425 429 429 451>
LayerCount: 2
Back
Fore
SplineSet
335 347 m 1
 335 327 l 1
 241 327 l 1
 241 451 l 1
 335 451 l 1
 335 429 l 1
 335 425 l 1
 335 403 l 1
 335 399 l 1
 335 379 l 1
 335 373 l 1
 335 353 l 1
 335 347 l 1
14 429 m 1
 14 451 l 1
 96 451 l 1
 96 327 l 1
 14 327 l 1
 14 347 l 1
 14 353 l 1
 14 373 l 1
 14 379 l 1
 14 399 l 1
 14 403 l 1
 14 425 l 1
 14 429 l 1
133 134 m 1
 127 134 l 1
 107 134 l 1
 107 553 l 1
 127 553 l 1
 133 553 l 1
 153 553 l 1
 159 553 l 1
 179 553 l 1
 185 553 l 1
 205 553 l 1
 209 553 l 1
 231 553 l 1
 231 462 l 1
 231 462 l 1
 231 451 l 1
 231 451 l 1
 231 327 l 1
 231 327 l 1
 231 317 l 1
 231 317 l 1
 231 134 l 1
 209 134 l 1
 205 134 l 1
 185 134 l 1
 179 134 l 1
 159 134 l 1
 153 134 l 1
 133 134 l 1
241 124 m 1
 332 124 l 1
 332 0 l 1
 246 0 l 1
 122 124 l 1
 241 124 l 1
EndSplineSet
EndChar
StartChar: u
Encoding: 117 117 47
Width: 437
Flags: MW
HStem: -11 21G<292 416 292 292> 0 124<151 281 151 151> 431 20G<14 34 34 38 38 60 60 64 64 86 86 90 90 110 110 116 116 136 136 136 292 416 416 416>
VStem: 14 122<134 451 134 451> 292 124<-11 134 134 451 -11 451>
LayerCount: 2
Back
Fore
SplineSet
38 134 m 1x78
 34 134 l 1
 14 134 l 1
 14 451 l 1
 34 451 l 1
 38 451 l 1
 60 451 l 1
 64 451 l 1
 86 451 l 1
 90 451 l 1
 110 451 l 1
 116 451 l 1
 136 451 l 1
 136 134 l 1
 116 134 l 1
 110 134 l 1
 90 134 l 1
 86 134 l 1
 64 134 l 1
 60 134 l 1
 38 134 l 1x78
30 124 m 1
 147 124 l 1
 281 124 l 1
 281 0 l 1
 151 0 l 1
 30 124 l 1
292 451 m 1
 416 451 l 1
 416 -11 l 1
 292 -11 l 1xb8
 292 134 l 1
 292 451 l 1
EndSplineSet
EndChar
StartChar: v
Encoding: 118 118 48
Width: 518
Flags: MW
HStem: 0 21G<184 186 184 184 197 197 197 334> 441 20G<122 122 396 396>
LayerCount: 2
Back
Fore
SplineSet
122 461 m 1
 252 157 l 1
 186 0 l 1
 184 0 l 1
 7 411 l 1
 27 420 l 1
 31 422 l 1
 51 431 l 1
 56 433 l 1
 75 439 l 1
 80 442 l 1
 97 450 l 1
 104 453 l 1
 122 461 l 1
396 461 m 1
 510 411 l 1
 334 0 l 1
 197 0 l 1
 199 7 l 1
 259 144 l 1
 259 144 l 1
 263 155 l 1
 396 461 l 1
EndSplineSet
EndChar
StartChar: w
Encoding: 119 119 49
Width: 689
Flags: MW
HStem: 0 21G<145 166 145 145 166 171 171 175 175 193 193 199 199 221 221 225 225 247 247 254 254 273 424 424 424 455 455 553> 439 20G<129 129 562 562>
LayerCount: 2
Back
Fore
SplineSet
129 459 m 1
 199 225 l 1
 136 4 l 1
 11 424 l 1
 27 428 l 1
 31 430 l 1
 51 437 l 1
 57 437 l 1
 75 443 l 1
 81 446 l 1
 101 450 l 1
 105 452 l 1
 129 459 l 1
206 207 m 1
 276 441 l 1
 339 223 l 1
 273 0 l 1
 254 0 l 1
 247 0 l 1
 225 0 l 1
 221 0 l 1
 199 0 l 1
 193 0 l 1
 175 0 l 1
 171 0 l 1
 166 0 l 1
 145 0 l 1
 206 205 l 1
 206 207 l 1
413 452 m 1
 479 223 l 1
 415 4 l 1
 284 452 l 1
 302 452 l 1
 302 452 l 1
 306 452 l 1
 326 452 l 1
 332 452 l 1
 354 452 l 1
 359 452 l 1
 380 452 l 1
 387 452 l 1
 413 452 l 1
562 459 m 1
 680 424 l 1
 553 0 l 1
 455 0 l 1
 424 0 l 1
 490 218 l 1
 492 225 l 1
 562 459 l 1
EndSplineSet
EndChar
StartChar: x
Encoding: 120 120 50
Width: 409
Flags: MW
HStem: 0 21G<109 109 303 303> 441 20G<109 109 303 303>
LayerCount: 2
Back
Fore
SplineSet
199 342 m 1
 122 241 l 1
 9 386 l 1
 27 397 l 1
 31 402 l 1
 47 413 l 1
 51 417 l 1
 69 431 l 1
 73 433 l 1
 89 446 l 1
 93 448 l 1
 109 461 l 1
 199 342 l 1
285 230 m 1
 206 128 l 1
 206 128 l 1
 199 117 l 1
 199 117 l 1
 109 0 l 1
 9 75 l 1
 206 333 l 1
 208 336 l 1
 303 461 l 1
 402 386 l 1
 292 241 l 1
 292 241 l 1
 285 230 l 1
 285 230 l 1
292 221 m 1
 402 75 l 1
 387 64 l 1
 383 60 l 1
 365 46 l 1
 360 44 l 1
 345 31 l 1
 341 29 l 1
 325 15 l 1
 321 13 l 1
 303 0 l 1
 213 117 l 1
 292 221 l 1
EndSplineSet
EndChar
StartChar: y
Encoding: 121 121 51
Width: 492
Flags: MW
HStem: -244 21G<197 197> 446 20G<131 131 363 363>
LayerCount: 2
Back
Fore
SplineSet
240 209 m 1
 170 48 l 1
 13 413 l 1
 32 423 l 1
 38 425 l 1
 57 434 l 1
 61 436 l 1
 82 443 l 1
 86 445 l 1
 106 454 l 1
 111 457 l 1
 131 466 l 1
 240 209 l 1
363 466 m 1
 481 413 l 1
 324 48 l 1
 324 48 l 1
 315 26 l 1
 315 26 l 1
 197 -244 l 1
 79 -192 l 1
 172 23 l 1
 177 32 l 1
 177 32 l 1
 247 196 l 1
 249 200 l 1
 363 466 l 1
EndSplineSet
EndChar
StartChar: z
Encoding: 122 122 52
Width: 363
Flags: MW
HStem: 0 124<69 73 69 69 73 99 99 108 108 134 134 142 142 168 168 184 184 212 212 227 227 347> 328 124<23 175 23 286 188 188>
LayerCount: 2
Back
Fore
SplineSet
221 380 m 1
 175 328 l 1
 23 328 l 1
 23 350 l 1
 23 354 l 1
 23 374 l 1
 23 380 l 1
 23 400 l 1
 23 406 l 1
 23 426 l 1
 23 432 l 1
 23 452 l 1
 286 452 l 1
 268 432 l 1
 268 432 l 1
 262 426 l 1
 244 406 l 1
 244 406 l 1
 240 400 l 1
 221 380 l 1
47 135 m 1
 40 135 l 1
 12 135 l 1
 179 317 l 1
 188 328 l 1
 294 443 l 1
 349 321 l 1
 344 317 l 1
 179 135 l 1
 151 135 l 1
 145 135 l 1
 116 135 l 1
 110 135 l 1
 82 135 l 1
 75 135 l 1
 47 135 l 1
212 124 m 1
 227 124 l 1
 347 124 l 1
 347 104 l 1
 347 98 l 1
 347 78 l 1
 347 72 l 1
 347 52 l 1
 347 48 l 1
 347 26 l 1
 347 22 l 1
 347 0 l 1
 73 0 l 1
 69 0 l 1
 14 124 l 1
 32 124 l 1
 38 124 l 1
 66 124 l 1
 73 124 l 1
 99 124 l 1
 108 124 l 1
 134 124 l 1
 142 124 l 1
 168 124 l 1
 184 124 l 1
 212 124 l 1
EndSplineSet
EndChar
